<svg width="28" height="27" viewBox="0 0 28 27" fill="none" xmlns="http://www.w3.org/2000/svg">
<path d="M23.2617 14.7339H12.9535V4.43201C12.9535 4.18308 12.7524 3.98196 12.5034 3.98196C6.32515 3.98196 1.3015 9.00561 1.3015 15.1839C1.3015 17.0319 1.75154 18.8321 2.60874 20.4466H0.68198C0.433048 20.4466 0.231934 20.6478 0.231934 20.8967V25.9365C0.231934 26.1854 0.433048 26.3866 0.68198 26.3866H10.7834C10.8889 26.3866 10.9789 26.3493 11.0584 26.2909C11.5401 26.3549 12.0274 26.3866 12.514 26.3866C18.6923 26.3866 23.7166 21.3622 23.7166 15.1839C23.711 14.9357 23.5099 14.7339 23.2617 14.7339ZM1.13203 21.3467H3.59885V25.4921H1.13203V21.3467ZM4.49894 20.8967V17.7731H6.96576V25.4921H4.49894V20.8967ZM7.86585 17.323V14.9244H10.3334V25.4921H7.86585V17.323ZM12.5034 25.4865C12.0752 25.4865 11.6512 25.4597 11.2278 25.407V14.4751C11.2278 14.2262 11.0267 14.025 10.7778 14.025H7.41088C7.16195 14.025 6.96084 14.2262 6.96084 14.4751V16.873H4.04889C3.79996 16.873 3.59885 17.0741 3.59885 17.323V20.3672C2.68328 18.7998 2.20159 17.0157 2.20159 15.1839C2.20159 9.65185 6.5797 5.12536 12.0534 4.88698V15.1839C12.0534 15.4328 12.2552 15.634 12.5034 15.634H22.8011C22.5627 21.1084 18.0362 25.4865 12.5034 25.4865ZM25.5063 7.05213C24.9817 6.14149 24.3467 5.29976 23.6161 4.54312C23.0388 3.95032 22.4038 3.40464 21.7315 2.92857C21.1331 2.51017 20.4981 2.13958 19.8364 1.82736C19.2274 1.54116 18.5917 1.30278 17.9511 1.11221C17.3429 0.932193 16.7072 0.799992 16.0616 0.709982C15.4899 0.636146 14.907 0.598877 14.3353 0.598877C14.0863 0.598877 13.8852 0.799992 13.8852 1.04892V13.5005C13.8852 13.7494 14.0863 13.9505 14.3353 13.9505H26.7819C27.0308 13.9505 27.2319 13.7494 27.2319 13.5005C27.2319 11.2298 26.6335 9.00069 25.5063 7.05213ZM14.7804 1.50952C15.0343 1.52007 15.2881 1.53624 15.5476 1.56226V13.0504H14.7804V1.50952ZM16.4477 1.68391C16.7599 1.74228 17.0672 1.80627 17.3689 1.88503V13.0455H16.4477V1.68391ZM18.269 2.16068C18.5812 2.26686 18.8885 2.38852 19.1902 2.52564V13.0504H18.269V2.16068ZM20.0952 2.97076C20.413 3.14516 20.7203 3.33572 21.022 3.53684V13.056H20.0952V2.97076ZM21.9221 4.20417C22.2449 4.46858 22.5521 4.74423 22.8433 5.04098V13.0504H21.9221V4.20417ZM23.7434 6.05148C24.0816 6.48043 24.3889 6.93047 24.6646 7.39669V13.0504H23.7434V6.05148ZM25.5647 13.0504V9.27564C26.014 10.4774 26.2735 11.7537 26.3213 13.0504H25.5647Z" fill="#00B3E3"/>
</svg>
