<svg width="28" height="27" viewBox="0 0 28 27" fill="none" xmlns="http://www.w3.org/2000/svg">
<path d="M23.2616 14.7339H12.9534V4.43201C12.9534 4.18308 12.7523 3.98196 12.5034 3.98196C6.32509 3.98196 1.30144 9.00561 1.30144 15.1839C1.30144 17.0319 1.75148 18.8321 2.60868 20.4466H0.681919C0.432987 20.4466 0.231873 20.6478 0.231873 20.8967V25.9365C0.231873 26.1854 0.432987 26.3866 0.681919 26.3866H10.7834C10.8888 26.3866 10.9789 26.3493 11.0583 26.2909C11.54 26.3549 12.0273 26.3866 12.5139 26.3866C18.6922 26.3866 23.7166 21.3622 23.7166 15.1839C23.711 14.9357 23.5098 14.7339 23.2616 14.7339ZM1.13197 21.3467H3.59879V25.4921H1.13197V21.3467ZM4.49888 20.8967V17.7731H6.9657V25.4921H4.49888V20.8967ZM7.86579 17.323V14.9244H10.3333V25.4921H7.86579V17.323ZM12.5034 25.4865C12.0751 25.4865 11.6511 25.4597 11.2278 25.407V14.4751C11.2278 14.2262 11.0267 14.025 10.7777 14.025H7.41082C7.16189 14.025 6.96078 14.2262 6.96078 14.4751V16.873H4.04883C3.7999 16.873 3.59879 17.0741 3.59879 17.323V20.3672C2.68322 18.7998 2.20153 17.0157 2.20153 15.1839C2.20153 9.65185 6.57964 5.12536 12.0533 4.88698V15.1839C12.0533 15.4328 12.2552 15.634 12.5034 15.634H22.801C22.5626 21.1084 18.0361 25.4865 12.5034 25.4865ZM25.5062 7.05213C24.9816 6.14149 24.3467 5.29976 23.616 4.54312C23.0387 3.95032 22.4037 3.40464 21.7315 2.92857C21.133 2.51017 20.498 2.13958 19.8363 1.82736C19.2274 1.54116 18.5917 1.30278 17.9511 1.11221C17.3428 0.932193 16.7071 0.799992 16.0616 0.709982C15.4899 0.636146 14.9069 0.598877 14.3352 0.598877C14.0863 0.598877 13.8852 0.799992 13.8852 1.04892V13.5005C13.8852 13.7494 14.0863 13.9505 14.3352 13.9505H26.7818C27.0308 13.9505 27.2319 13.7494 27.2319 13.5005C27.2319 11.2298 26.6335 9.00069 25.5062 7.05213ZM14.7803 1.50952C15.0342 1.52007 15.2881 1.53624 15.5475 1.56226V13.0504H14.7803V1.50952ZM16.4476 1.68391C16.7598 1.74228 17.0671 1.80627 17.3688 1.88503V13.0455H16.4476V1.68391ZM18.2689 2.16068C18.5811 2.26686 18.8884 2.38852 19.1901 2.52564V13.0504H18.2689V2.16068ZM20.0951 2.97076C20.413 3.14516 20.7203 3.33572 21.0219 3.53684V13.056H20.0951V2.97076ZM21.922 4.20417C22.2448 4.46858 22.5521 4.74423 22.8432 5.04098V13.0504H21.922V4.20417ZM23.7433 6.05148C24.0815 6.48043 24.3888 6.93047 24.6645 7.39669V13.0504H23.7433V6.05148ZM25.5646 13.0504V9.27564C26.0139 10.4774 26.2734 11.7537 26.3212 13.0504H25.5646Z" fill="#00B3E3"/>
</svg>
