<?xml version="1.0" encoding="UTF-8"?>
<svg id="Layer_1" xmlns="http://www.w3.org/2000/svg" version="1.1" viewBox="0 0 36 36">
  <!-- Generator: Adobe Illustrator 29.1.0, SVG Export Plug-In . SVG Version: 2.1.0 Build 142)  -->
  <defs>
    <style>
      .st0, .st1 {
        fill: none;
        stroke: #0b4a99;
        stroke-miterlimit: 10;
        stroke-width: 1.3px;
      }

      .st2 {
        fill: #7ab5f4;
      }

      .st1 {
        stroke-linecap: round;
      }

      .st3 {
        fill: #0b4a99;
      }
    </style>
  </defs>
  <path class="st2" d="M15.9,33.4h-7V13l1.5-2.6.2-.2c.8-1.2,2.6-1.3,3.5-.1l1.7,2.7h0v20.6Z"/>
  <path class="st0" d="M15.9,33.4h-7V13l1.5-2.6.2-.2c.8-1.2,2.6-1.3,3.5-.1l1.7,2.7h0v20.6Z"/>
  <path class="st0" d="M29.8,33.4h-7v-15.2c.8-.5,1.4-1.3,2-2.1l.8-.7c.3-.3.8-.2,1.3-.1h.2c.4.1.8.4,1.1.7l.9,1.2.8,1v15.3Z"/>
  <path class="st1" d="M5.3,20.1l1.8-4,2.3-4,1.2-2.3s1.8-1.5,3.4,0c0,0,.9,1.5,1.3,2s1.3,2,1.6,2.9.6,3.3.9,3.6.6,1,3,.5c0,0,1.3-.4,2-.8s1.3-.9,2-2.1,2.7-1,3.2-.2,2.3,3,3.7,4.4,1.6,1.9,1.6,1.9"/>
  <path class="st3" d="M36,33.2c0-.2-.3-.5-.5-.5H3.3V.5c0-.1-.1-.2-.4-.4h0c0,0-2.9,0-2.9,0v.8h0c.2.3.3.4.4.4h1.6v1.5c-.4,0-.8,0-1,.3-.1.2-.1.4,0,.6.2.3.5.4,1,.3v1.5c-.2,0-.4,0-.6,0-.5,0-1.1,0-1.4.4h0v.4h0c.2.3.3.4.4.4h1.6v1.5c-.4,0-.8,0-1,.3-.1.2-.1.4,0,.6.2.3.5.4,1,.3v1.5c-.2,0-.4,0-.6,0-.5,0-1.1,0-1.4.4h0v.4h0c0,.2.4.4.5.4h1.5v1.5c-.6,0-.9.2-1,.3-.1.2-.1.4,0,.6.2.3.5.4,1,.4v1.5c-.2,0-.4,0-.6,0-.5,0-1.1,0-1.4.3h0v.5h0c0,.1.4.4.6.4h1.5v1.4c-.5,0-.8.1-1,.4-.1.2-.1.4,0,.6,0,.1.3.4,1,.3v1.5H.6c-.1,0-.5.3-.5.4v.4s0,0,0,0c0,0,0,0,.1.1.1.2.2.2.3.2h1.7v1.5c-.4,0-.8,0-1,.3-.1.2-.1.4,0,.6.2.3.5.4,1,.3v1.5H.5c-.1,0-.2.1-.4.3h0v.5h0s0,.1.1.2c.1.2.2.2.3.2h1.7v1.5c-.4,0-.8,0-1,.3-.1.2-.1.4,0,.6.2.3.5.4,1,.3v1.5H.5c-.1,0-.2.1-.4.3h0v.5h0c.2.3.3.4.4.4h1.6v1.6c0,.2.4.5.6.5s.6-.3.6-.5v-1.6h1.5c0,.4,0,.8.3,1,.2.1.4.1.6,0,.3-.2.4-.5.3-1h1.5v1.7c0,0,0,.1,0,.2.1.1.4.3.6.2.2,0,.6-.3.6-.5v-1.6h1.5c0,.4,0,.8.3,1,.2.1.4.1.6,0,.3-.2.4-.5.3-1h1.5v1.7c0,.1.1.2.3.3.2,0,.5.1.7,0,0,0,.2-.3.2-.4v-1.5h1.5c0,.6.2.9.3,1,.2.1.4.1.6,0,.3-.2.4-.5.4-1h1.4v1.4c0,.3.2.6.5.7,0,0,.1,0,.2,0,.2,0,.3,0,.4-.2,0,0,.2-.4.2-.5v-1.4h1.4c0,.5.1.8.4,1,.2.1.4.1.6,0,.1,0,.4-.3.3-1h1.5v1.5c0,0,.2.4.2.4.2.2.5.1.7,0,.2,0,.3-.2.3-.3v-1.7h1.5c0,.4,0,.8.3,1,.2.1.4.1.6,0,.3-.2.4-.5.3-1h1.5v1.6c0,.2.4.5.5.5.2,0,.5-.1.6-.2,0,0,0-.1,0-.2v-1.7h1.5c0,.4,0,.8.3,1,.2.1.4.1.6,0,.3-.2.4-.5.3-1h1.5v1.6c0,.3.3.4.6.5.3,0,.6,0,.7-.5,0-.3,0-2,0-2.3Z"/>
</svg>