<?xml version="1.0" encoding="UTF-8"?>
<svg id="Layer_1" xmlns="http://www.w3.org/2000/svg" version="1.1" viewBox="0 0 36 36">
  <!-- Generator: Adobe Illustrator 29.1.0, SVG Export Plug-In . SVG Version: 2.1.0 Build 142)  -->
  <defs>
    <style>
      .st0 {
        fill: #7ab5f4;
      }

      .st1 {
        fill: #0b4a99;
      }
    </style>
  </defs>
  <g>
    <polygon class="st0" points=".8 32 6.8 26.1 12.6 26.4 18.9 20.2 24.6 20.2 33.9 14.1 33.9 35.5 .6 35.5 .8 32"/>
    <path class="st1" d="M34.4,2v26.4c-.2.3-.5.6-.9.3s-.3-.3-.3-.4v-12.9l-8.3,5.4c-2,.2-4.1,0-6.1.1l-6,5.9h-6.1c0,0-5.7,5.7-5.7,5.7v2.2h32.1v-4.5c0-.4,1-.6,1.2,0v5.3c-.2.2-.3.4-.7.4H.5c-.3,0-.4-.3-.4-.6,0-3.1-.1-6.3,0-9.4l6.1-9.2h.4c0-.1,5.7-.2,5.7-.2l6-8.9c.1-.1.3-.1.4-.1,1.9-.2,4,.2,5.9,0l9.1-6c.4,0,.5.1.7.4ZM1.2,30.9l5.2-5.1c2-.2,4.1,0,6.1-.1l6-5.9h6.1c0,0,8.7-5.9,8.7-5.9V3.3l-8.3,5.5h-6c0,0-5.9,8.9-5.9,8.9h-.3c0,.1-5.9.2-5.9.2L1.2,26.5v4.5Z"/>
  </g>
  <polygon class="st1" points="35.6 36 0 36 0 2.4 1.2 2.4 1.2 34.8 35.6 34.8 35.6 36"/>
</svg>