<?xml version="1.0" encoding="utf-8"?>
<!-- Generator: Adobe Illustrator 28.1.0, SVG Export Plug-In . SVG Version: 6.00 Build 0)  -->
<svg version="1.1" id="Layer_1" xmlns="http://www.w3.org/2000/svg" xmlns:xlink="http://www.w3.org/1999/xlink" x="0px" y="0px"
	 viewBox="0 0 15.9 15.9" style="enable-background:new 0 0 15.9 15.9;" xml:space="preserve">
<style type="text/css">
	.st0{fill:#3B3091;}
</style>
<path class="st0" d="M7.4,14.8L0.9,8.2c-0.3-0.3-0.3-0.7,0-1l0.6-0.6l6,5.9c0.3,0.3,0.7,0.3,1,0l6-5.9L15,7.2c0.3,0.3,0.3,0.7,0,1
	l-6.6,6.6C8.2,15.1,7.7,15.1,7.4,14.8L7.4,14.8z"/>
<path class="st0" d="M7.4,9.1L0.9,2.5c-0.3-0.3-0.3-0.7,0-1l0.6-0.6l6,5.9c0.3,0.3,0.7,0.3,1,0l6-5.9L15,1.5c0.3,0.3,0.3,0.7,0,1
	L8.4,9.1C8.2,9.3,7.7,9.3,7.4,9.1L7.4,9.1z"/>
</svg>
