<?xml version="1.0" encoding="utf-8"?>
<!-- Generator: Adobe Illustrator 28.1.0, SVG Export Plug-In . SVG Version: 6.00 Build 0)  -->
<svg version="1.1" id="Layer_1" xmlns="http://www.w3.org/2000/svg" xmlns:xlink="http://www.w3.org/1999/xlink" x="0px" y="0px"
	 viewBox="0 0 512 512" style="enable-background:new 0 0 512 512;" xml:space="preserve">
<style type="text/css">
	.st0{fill:#0B4A99;}
</style>
<g>
	<path class="st0" d="M477.1,0H34.9C15.3,0,0,15.3,0,34.9v442.3C0,496.7,15.3,512,34.9,512h442.3c19.5,0,34.9-15.3,34.9-34.9V34.9
		C512,15.3,496.7,0,477.1,0z M490.1,34.9v443.7c0,7-5.9,13-13,13H34.9c-7,0-13-5.9-13-13V36.2c0-7,5.9-13,13-13h2.5v-1.4h439.8
		C484.2,21.9,490.1,27.8,490.1,34.9z"/>
	<polygon class="st0" points="68.3,62.7 445.1,62.7 445.1,178.2 468.3,178.2 468.3,39.4 45.1,39.4 45.1,424.7 275.4,424.7 
		275.4,401.4 68.3,401.4 	"/>
	<path class="st0" d="M186.7,104.3H87.3V205h99.3V104.3z M109.2,181.7v-54.2h54.2v54.2H109.2z"/>
	<path class="st0" d="M87.3,361.3h99.3v-99.3H87.3V361.3z M163.4,283.8V338h-54.2v-54.2H163.4z"/>
	<path class="st0" d="M456,187.2H225.1c-10.8,0-21.6,7.6-26.2,18.4c-4.5,10.4-1.8,24.3,6.2,32.3l84.4,85.9c0.7,0.7,0.7,1.2,0.7,2.6
		v118.2c0,7.2,3.7,14.6,9.4,18.9l0.1,0.1c4.7,3.2,9.3,4.7,14.1,4.7c3,0,6.2,0,12.3-3.1l49.1-16.9c9.9-3.3,15.8-11.5,15.8-22.1V324.9
		c0-1.4,0-1.9,0.7-2.5l86-86c8-8,10.7-21.8,6.1-30.9C478.8,194.4,468,187.2,456,187.2z M312,446.4V328c0-7.1-2.7-13.6-7.7-18.7
		l-84.5-85.9c-1.8-1.9-1.9-4.8-1.1-6.8c0.2-0.2,0.4-0.5,0.7-0.7c1.3-1.5,3.3-3.8,5.7-3.8h2.5v-1.6h225.6c3.5,0,5.1,1.1,6.1,3.9
		c1.4,4.2,0.8,5.8-0.8,7.4l-86,86c-4.6,4.6-7.8,12.3-7.8,18.7v103c0,0.2,0,0.4,0,0.5l-50.8,16.5H312z"/>
</g>
</svg>
