<?xml version="1.0" encoding="utf-8"?>
<!-- Generator: Adobe Illustrator 28.1.0, SVG Export Plug-In . SVG Version: 6.00 Build 0)  -->
<svg version="1.1" id="Layer_1" xmlns="http://www.w3.org/2000/svg" xmlns:xlink="http://www.w3.org/1999/xlink" x="0px" y="0px"
	 viewBox="0 0 512 512" style="enable-background:new 0 0 512 512;" xml:space="preserve">
<style type="text/css">
	.st0{fill:#063E96;}
</style>
<path class="st0" d="M95.8,350.3C44.1,350.3,2,308.2,2,256.5s42.1-93.8,93.8-93.8s93.8,42.1,93.8,93.8S147.5,350.3,95.8,350.3z
	 M95.8,187.6c-38,0-68.9,30.9-68.9,68.9s30.9,68.9,68.9,68.9s68.9-30.9,68.9-68.9S133.8,187.6,95.8,187.6z"/>
<g>
	<path class="st0" d="M416.2,187.6c-51.7,0-93.8-42.1-93.8-93.8S364.5,0,416.2,0S510,42.1,510,93.8S467.9,187.6,416.2,187.6
		L416.2,187.6z M416.2,25c-38,0-68.9,30.9-68.9,68.9s30.9,68.9,68.9,68.9s68.9-30.9,68.9-68.9S454.2,24.9,416.2,25z"/>
	<path class="st0" d="M416.2,512c-51.7,0-93.8-42.1-93.8-93.8s42.1-93.8,93.8-93.8s93.8,42.1,93.8,93.8S467.9,512,416.2,512z
		 M416.2,349.3c-38,0-68.9,30.9-68.9,68.9s30.9,68.9,68.9,68.9s68.9-30.9,68.9-68.9S454.2,349.3,416.2,349.3z"/>
</g>
<rect x="177.1" y="244" class="st0" width="91" height="24.9"/>
<path class="st0" d="M334.9,430.7h-58c-11.8,0-21.4-9.6-21.4-21.4V102.7c0-11.8,9.6-21.4,21.4-21.4h58v25h-54.4v299.4h54.4
	L334.9,430.7L334.9,430.7z"/>
</svg>
