<?xml version="1.0" encoding="utf-8"?>
<!-- Generator: Adobe Illustrator 28.1.0, SVG Export Plug-In . SVG Version: 6.00 Build 0)  -->
<svg version="1.1" id="Layer_1" xmlns="http://www.w3.org/2000/svg" xmlns:xlink="http://www.w3.org/1999/xlink" x="0px" y="0px"
	 viewBox="0 0 512 512" style="enable-background:new 0 0 512 512;" xml:space="preserve">
<style type="text/css">
	.st0{fill:#063E96;}
	.st1{fill:#1558FF;}
	.st2{fill:#5494FC;}
</style>
<g>
	<path class="st0" d="M484.3,511H27.7C12.4,511,0,498.6,0,483.3V26.7C0,11.4,12.4-1,27.7-1h456.6C499.6-1,512,11.4,512,26.7v456.6
		C512,498.6,499.6,511,484.3,511z M27.7,13.6c-7.2,0-13.1,5.9-13.1,13.1v456.6c0,7.2,5.9,13.1,13.1,13.1h456.6
		c7.2,0,13.1-5.9,13.1-13.1V26.7c0-7.2-5.9-13.1-13.1-13.1H27.7z"/>
</g>
<g>
	<g>
		<path class="st1" d="M260.9,291.1c-66.2,0-120-53.8-120-120s53.8-120,120-120c66.2,0,120,53.8,120,120S327,291.1,260.9,291.1z
			 M260.9,65.7c-58.1,0-105.4,47.3-105.4,105.4s47.3,105.4,105.4,105.4s105.4-47.3,105.4-105.4S319,65.7,260.9,65.7z"/>
	</g>
</g>
<g>
	<g>
		<polygon class="st1" points="307.4,274 253.6,172.9 253.6,58.4 268.1,58.4 268.1,169.3 320.3,267.1 		"/>
	</g>
</g>
<g>
	<g>
		<rect x="148.2" y="163.8" class="st1" width="112.6" height="14.6"/>
	</g>
</g>
<g>
	<g>
		<g>
			<path class="st2" d="M380.8,337.1H70c-4,0-7.3-3.3-7.3-7.3c0-4,3.3-7.3,7.3-7.3h310.9c4,0,7.3,3.3,7.3,7.3
				C388.1,333.8,384.9,337.1,380.8,337.1z"/>
		</g>
		<g>
			<path class="st2" d="M442,387.6H70c-4,0-7.3-3.3-7.3-7.3c0-4,3.3-7.3,7.3-7.3H442c4,0,7.3,3.3,7.3,7.3
				C449.3,384.4,446.1,387.6,442,387.6z"/>
		</g>
		<g>
			<path class="st2" d="M442,444H70c-4,0-7.3-3.3-7.3-7.3c0-4,3.3-7.3,7.3-7.3H442c4,0,7.3,3.3,7.3,7.3
				C449.3,440.7,446.1,444,442,444z"/>
		</g>
	</g>
</g>
</svg>
