<?xml version="1.0" encoding="utf-8"?>
<!-- Generator: Adobe Illustrator 28.1.0, SVG Export Plug-In . SVG Version: 6.00 Build 0)  -->
<svg version="1.1" id="Layer_1" xmlns="http://www.w3.org/2000/svg" xmlns:xlink="http://www.w3.org/1999/xlink" x="0px" y="0px"
	 viewBox="0 0 36 36" style="enable-background:new 0 0 36 36;" xml:space="preserve">
<style type="text/css">
	.st0{fill:#3B3091;}
</style>
<g>
	<g>
		<path class="st0" d="M34.6,36h-5.1V13.3h5.1V36z M30.6,34.9h2.9V14.4h-2.9V34.9z"/>
	</g>
	<g>
		<path class="st0" d="M28.8,36h-5.1V19.2h5.1V36z M24.8,34.9h2.9V20.3h-2.9V34.9z"/>
	</g>
	<g>
		<path class="st0" d="M22.8,36h-5.1V16.8h5.1V36z M18.8,34.9h2.9v-17h-2.9V34.9z"/>
	</g>
	<g>
		<path class="st0" d="M16.9,36h-5.1V21.6h5.1V36z M12.9,34.9h2.9V22.7h-2.9V34.9z"/>
	</g>
	<g>
		<path class="st0" d="M11.7,2.6c-0.2,0-0.4-0.1-0.5-0.3c-0.1-0.3,0-0.6,0.3-0.7c1.9-0.8,3.9-1.2,6-1.2c0.3,0,0.5,0.2,0.5,0.5
			s-0.2,0.5-0.5,0.5c-1.9,0-3.8,0.4-5.6,1.1C11.8,2.6,11.7,2.6,11.7,2.6z"/>
	</g>
	<g>
		<path class="st0" d="M2.1,16C2,16,2,16,2.1,16c-0.3,0-0.6-0.3-0.5-0.6c0.1-1,0.2-1.9,0.4-2.8c0.1-0.3,0.4-0.5,0.7-0.4
			s0.5,0.4,0.4,0.7c-0.2,0.9-0.3,1.7-0.4,2.6C2.6,15.8,2.3,16,2.1,16z"/>
	</g>
	<g>
		<path class="st0" d="M12.4,31.4c-0.1,0-0.1,0-0.2,0c-5.7-2-9.7-6.8-10.6-12.7c0-0.3,0.2-0.6,0.5-0.6s0.6,0.2,0.6,0.5
			c0.8,5.5,4.6,10,9.8,11.9c0.3,0.1,0.4,0.4,0.3,0.7C12.8,31.3,12.6,31.4,12.4,31.4z"/>
	</g>
	<g>
		<path class="st0" d="M14.2,20c-1,0-1.9-0.8-1.9-1.9c0-1,0.8-1.9,1.9-1.9s1.9,0.8,1.9,1.9S15.3,20,14.2,20z M14.2,17.4
			c-0.4,0-0.8,0.3-0.8,0.8c0,0.4,0.3,0.8,0.8,0.8c0.4,0,0.8-0.3,0.8-0.8C15,17.7,14.7,17.4,14.2,17.4z"/>
	</g>
	<g>
		<path class="st0" d="M20.3,16c-1,0-1.9-0.8-1.9-1.9s0.8-1.9,1.9-1.9c1,0,1.9,0.8,1.9,1.9S21.3,16,20.3,16z M20.3,13.3
			c-0.4,0-0.8,0.3-0.8,0.8c0,0.4,0.3,0.8,0.8,0.8c0.4,0,0.8-0.3,0.8-0.8C21,13.7,20.7,13.3,20.3,13.3z"/>
	</g>
	<g>
		<path class="st0" d="M26.2,18.4c-1,0-1.9-0.8-1.9-1.9s0.8-1.9,1.9-1.9s1.9,0.8,1.9,1.9S27.2,18.4,26.2,18.4z M26.2,15.8
			c-0.4,0-0.8,0.3-0.8,0.8s0.3,0.8,0.8,0.8c0.4,0,0.8-0.3,0.8-0.8S26.6,15.8,26.2,15.8z"/>
	</g>
	<g>
		<path class="st0" d="M32,12.1c-2.2,0-3.9-1.8-3.9-3.9s1.8-3.9,3.9-3.9s4,1.7,4,3.9S34.2,12.1,32,12.1z M32,5.4
			c-1.6,0-2.8,1.3-2.8,2.8S30.5,11,32,11c1.6,0,2.8-1.3,2.8-2.8S33.6,5.4,32,5.4z"/>
	</g>
	<g>
		<path class="st0" d="M15.4,18.2c-0.2,0-0.3-0.1-0.4-0.2c-0.2-0.2-0.1-0.6,0.1-0.8l3.8-2.8c0.2-0.2,0.6-0.1,0.8,0.1
			c0.2,0.2,0.1,0.6-0.1,0.8L15.7,18C15.6,18.1,15.5,18.2,15.4,18.2z"/>
	</g>
	<g>
		<path class="st0" d="M25,16.6c-0.1,0-0.2,0-0.2-0.1L21.4,15c-0.3-0.1-0.4-0.5-0.3-0.7c0.1-0.3,0.5-0.4,0.7-0.3l3.4,1.6
			c0.3,0.1,0.4,0.5,0.3,0.7C25.4,16.5,25.2,16.6,25,16.6z"/>
	</g>
	<g>
		<path class="st0" d="M26.9,16c-0.1,0-0.2,0-0.3-0.1c-0.2-0.2-0.3-0.5-0.1-0.8l3.2-4.5c0.2-0.2,0.5-0.3,0.8-0.1
			c0.2,0.2,0.3,0.5,0.1,0.8l-3.2,4.5C27.2,15.9,27,16,26.9,16z"/>
	</g>
	<g>
		<path class="st0" d="M25.4,5.2h-8c-0.3,0-0.5-0.2-0.5-0.5s0.2-0.5,0.5-0.5h8c0.3,0,0.5,0.2,0.5,0.5C26,4.9,25.7,5.2,25.4,5.2z"/>
	</g>
	<g>
		<path class="st0" d="M25.4,7.6h-8c-0.3,0-0.5-0.2-0.5-0.5s0.2-0.5,0.5-0.5h8C25.7,6.5,26,6.7,26,7S25.7,7.6,25.4,7.6z"/>
	</g>
	<g>
		<path class="st0" d="M18.3,9.8h-1c-0.3,0-0.5-0.2-0.5-0.5s0.2-0.5,0.5-0.5h1c0.3,0,0.5,0.2,0.5,0.5S18.6,9.8,18.3,9.8z"/>
	</g>
	<g>
		<path class="st0" d="M20.7,9.8h-1c-0.3,0-0.5-0.2-0.5-0.5s0.2-0.5,0.5-0.5h1c0.3,0,0.5,0.2,0.5,0.5S21,9.8,20.7,9.8z"/>
	</g>
	<g>
		<path class="st0" d="M23.1,9.8h-1c-0.3,0-0.5-0.2-0.5-0.5s0.2-0.5,0.5-0.5h1c0.3,0,0.5,0.2,0.5,0.5S23.4,9.8,23.1,9.8z"/>
	</g>
	<g>
		<path class="st0" d="M25.5,9.8h-1c-0.3,0-0.5-0.2-0.5-0.5s0.2-0.5,0.5-0.5h1C25.8,8.7,26,9,26,9.3S25.8,9.8,25.5,9.8z"/>
	</g>
	<g>
		<path class="st0" d="M6.2,14.2c-0.1,0-0.2,0-0.2,0l-1.8-0.5c-0.2-0.1-0.4-0.2-0.5-0.4s-0.1-0.4-0.1-0.6l0.3-0.8
			c-0.3-0.2-0.5-0.4-0.7-0.6l-0.8,0.4c-0.4,0.2-0.9,0.1-1.1-0.3L0.4,9.7C0.3,9.5,0.3,9.2,0.4,9s0.2-0.4,0.4-0.5l0.8-0.4
			C1.5,7.8,1.4,7.5,1.4,7.2L0.6,7C0.4,6.9,0.2,6.8,0.1,6.6C0,6.4,0,6.1,0.1,5.9l0.5-1.8C0.7,4,0.8,3.8,1,3.7s0.4-0.1,0.6-0.1
			l0.8,0.3C2.6,3.6,2.8,3.4,3,3.2L2.6,2.4C2.5,2.2,2.5,2,2.6,1.8c0-0.3,0.2-0.4,0.4-0.5l1.6-0.9C5,0.2,5.5,0.3,5.7,0.7l0.4,0.8
			c0.3,0,0.6-0.1,0.9-0.1l0.3-0.8c0.1-0.2,0.2-0.4,0.4-0.5C7.9,0,8.1,0,8.3,0l1.8,0.5c0.2,0.1,0.4,0.2,0.5,0.4s0.1,0.4,0.1,0.6
			l-0.3,0.8c0.3,0.2,0.5,0.4,0.7,0.6l0.8-0.4c0.2-0.1,0.4-0.1,0.6-0.1C12.7,2.6,12.9,2.8,13,3l0.9,1.6C14.1,5,14,5.5,13.6,5.7
			l-0.8,0.4c0.1,0.3,0.1,0.6,0.1,0.9l0.8,0.3c0.4,0.1,0.7,0.6,0.5,1l-0.5,1.8c-0.1,0.4-0.6,0.7-1,0.6l-0.8-0.3
			c-0.2,0.3-0.4,0.5-0.6,0.7l0.4,0.8c0.2,0.4,0.1,0.9-0.3,1.1l-1.6,0.9C9.6,14,9.4,14,9.2,14c-0.2-0.1-0.4-0.2-0.5-0.4l-0.4-0.8
			c-0.3,0.1-0.6,0.1-0.9,0.1L7,13.7C6.9,14,6.5,14.2,6.2,14.2z M4.8,12.7L6,13.1l0.2-0.8c0.1-0.4,0.5-0.6,0.8-0.6
			c0.4,0,0.7,0,1.1-0.1c0.4,0,0.8,0.1,0.9,0.4l0.4,0.7l1.2-0.6l-0.4-0.7c-0.2-0.3-0.1-0.7,0.2-1c0.3-0.2,0.5-0.5,0.7-0.8
			s0.6-0.5,0.9-0.3l0.8,0.2l0.4-1.3L12.3,8c-0.4-0.1-0.6-0.4-0.6-0.8s0-0.7-0.1-1.1s0.1-0.7,0.4-0.9l0.7-0.4l-0.6-1.2L11.4,4
			c-0.3,0.2-0.7,0.1-1-0.2c-0.2-0.3-0.5-0.5-0.8-0.7C9.3,3,9.2,2.7,9.3,2.3l0.2-0.8L8.3,1.2L8,1.9C7.9,2.3,7.6,2.5,7.2,2.5
			s-0.7,0-1.1,0.1C5.8,2.7,5.4,2.5,5.2,2.2L4.9,1.5L3.7,2.1l0.4,0.7c0.2,0.3,0.1,0.7-0.2,1C3.7,4.1,3.5,4.3,3.3,4.6
			C3.1,4.9,2.7,5.1,2.3,5L1.6,4.7L1.2,6L2,6.2C2.3,6.3,2.5,6.7,2.5,7c0,0.4,0,0.7,0.1,1.1C2.7,8.5,2.5,8.8,2.2,9L1.5,9.4l0.6,1.2
			l0.7-0.4c0.3-0.2,0.7-0.1,1,0.2c0.2,0.3,0.5,0.5,0.8,0.7C5,11.2,5.1,11.6,5,11.9L4.8,12.7z M9.2,12.9L9.2,12.9L9.2,12.9z
			 M4.5,12.6L4.5,12.6L4.5,12.6z M1.3,9.5L1.3,9.5L1.3,9.5z M1.7,8L1.7,8L1.7,8z M1.6,7.3L1.6,7.3L1.6,7.3z M0.9,5.9L0.9,5.9
			L0.9,5.9z M12.7,5.9L12.7,5.9L12.7,5.9z M2.6,3.9L2.6,3.9L2.6,3.9z M12,3.5L12,3.5L12,3.5z M11.2,3.2L11.2,3.2L11.2,3.2z M3.2,3
			L3.2,3L3.2,3z M9.8,1.6L9.8,1.6L9.8,1.6z M5.9,1.5L5.9,1.5L5.9,1.5z M7.1,10.4c-0.3,0-0.6,0-0.9-0.1C4.5,9.7,3.5,7.9,4,6.2
			S6.3,3.5,8,4s2.7,2.3,2.2,4C9.8,9.5,8.5,10.4,7.1,10.4z M7.1,5c-0.9,0-1.7,0.6-2,1.5C4.9,7,5,7.6,5.2,8.1S6,9,6.5,9.2
			c1.1,0.3,2.3-0.3,2.7-1.4c0.3-1.1-0.3-2.3-1.4-2.7C7.6,5,7.3,5,7.1,5z"/>
	</g>
</g>
</svg>
