<?xml version="1.0" encoding="UTF-8"?>
<svg id="Layer_1" data-name="Layer 1" xmlns="http://www.w3.org/2000/svg" viewBox="0 0 36 36">
  <defs>
    <style>
      .cls-1 {
        fill: #7ab5f4;
      }

      .cls-2 {
        fill: none;
      }

      .cls-3 {
        fill: #0b4a99;
      }
    </style>
  </defs>
  <rect class="cls-1" x="-2.89" y="15.21" width="12.85" height="4.55" transform="translate(21.02 13.95) rotate(90)"/>
  <g>
    <rect class="cls-2" x="22.78" y="1.96" width="4.1" height="5.29"/>
    <rect class="cls-2" x="14.29" y="22.42" width="4.1" height="5.16"/>
    <polygon class="cls-2" points="26.87 34.04 26.87 22.42 22.78 22.42 22.78 27.58 25.62 27.58 25.62 28.88 22.78 28.88 22.78 34.04 26.87 34.04"/>
    <rect class="cls-2" x="14.29" y="1.96" width="4.1" height="5.29"/>
    <rect class="cls-2" x="14.29" y="28.88" width="4.1" height="5.16"/>
    <rect class="cls-2" x="22.78" y="8.54" width="4.1" height="5.03"/>
    <rect class="cls-2" x="14.29" y="8.54" width="4.1" height="5.03"/>
    <rect class="cls-2" x="30.61" y="1.96" width="4.1" height="11.62"/>
    <rect class="cls-2" x="1.3" y="11.57" width="4.1" height="11.62"/>
    <path class="cls-3" d="M0,24.48h6.69v-14.21H0v14.21ZM1.3,11.57h4.1v11.62H1.3v-11.62Z"/>
    <polygon class="cls-3" points="14.29 22.42 18.39 22.42 18.39 27.58 19.69 27.58 19.69 21.12 13 21.12 13 27.58 14.29 27.58 14.29 22.42"/>
    <polygon class="cls-3" points="18.39 34.04 14.29 34.04 14.29 28.88 13 28.88 13 35.34 19.69 35.34 19.69 28.88 18.39 28.88 18.39 34.04"/>
    <polygon class="cls-3" points="22.78 22.42 26.87 22.42 26.87 34.04 22.78 34.04 22.78 28.88 21.48 28.88 21.48 35.34 28.17 35.34 28.17 21.12 21.48 21.12 21.48 27.58 22.78 27.58 22.78 22.42"/>
    <polygon class="cls-3" points="22.78 1.96 26.87 1.96 26.87 7.25 28.17 7.25 28.17 .66 21.48 .66 21.48 7.25 22.78 7.25 22.78 1.96"/>
    <polygon class="cls-3" points="26.87 13.58 22.78 13.58 22.78 8.54 21.48 8.54 21.48 14.87 28.17 14.87 28.17 8.54 26.87 8.54 26.87 13.58"/>
    <path class="cls-3" d="M29.31.66v6.59h1.28v1.3h-1.28v6.33h6.69V.66h-6.69ZM34.7,13.58h-4.1V1.96h4.1v11.62Z"/>
    <polygon class="cls-3" points="18.39 13.58 14.29 13.58 14.29 8.54 13 8.54 13 14.87 19.69 14.87 19.69 8.54 18.39 8.54 18.39 13.58"/>
    <polygon class="cls-3" points="14.29 1.96 18.39 1.96 18.39 7.25 19.69 7.25 19.69 .66 13 .66 13 7.25 14.29 7.25 14.29 1.96"/>
    <rect class="cls-3" x="6.76" y="17.09" width="2.04" height="1.3"/>
    <rect class="cls-3" x="19.69" y="27.58" width="1.79" height="1.3"/>
    <rect class="cls-3" x="19.69" y="7.25" width="1.79" height="1.3"/>
    <polygon class="cls-3" points="8.8 7.25 8.8 17.09 9.44 17.09 9.44 18.38 8.8 18.38 8.8 28.88 13 28.88 13 27.58 10.09 27.58 10.09 8.54 13 8.54 13 7.25 8.8 7.25"/>
    <rect class="cls-3" x="28.17" y="7.25" width="1.14" height="1.3"/>
    <rect class="cls-3" x="13" y="27.58" width="1.3" height="1.3"/>
    <rect class="cls-3" x="18.39" y="27.58" width="1.3" height="1.3"/>
    <rect class="cls-3" x="21.48" y="27.58" width="1.3" height="1.3"/>
    <rect class="cls-3" x="26.87" y="7.25" width="1.3" height="1.3"/>
    <rect class="cls-3" x="21.48" y="7.25" width="1.3" height="1.3"/>
    <rect class="cls-3" x="29.31" y="7.25" width="1.28" height="1.3"/>
    <rect class="cls-3" x="18.39" y="7.25" width="1.3" height="1.3"/>
    <rect class="cls-3" x="13" y="7.25" width="1.3" height="1.3"/>
    <rect class="cls-3" x="8.8" y="17.09" width=".65" height="1.3"/>
  </g>
</svg>