<?xml version="1.0" encoding="utf-8"?>
<!-- Generator: Adobe Illustrator 28.1.0, SVG Export Plug-In . SVG Version: 6.00 Build 0)  -->
<svg version="1.1" id="Layer_1" xmlns="http://www.w3.org/2000/svg" xmlns:xlink="http://www.w3.org/1999/xlink" x="0px" y="0px"
	 viewBox="0 0 512 512" style="enable-background:new 0 0 512 512;" xml:space="preserve">
<style type="text/css">
	.st0{fill:#0B4A99;}
</style>
<g>
	<path class="st0" d="M509.8,471.7V323.3c0-7-5.3-12.3-12.3-12.3s-12.3,5.3-12.3,12.3v148.5c0,6.9-5.8,14.4-14.4,14.4h-430
		c-6.9,0-14.4-5.8-14.4-14.4V320.6c0-7-5.3-12.3-12.3-12.3c-7,0-12.3,5.3-12.3,12.3v151.2c0,22.2,18.1,40.3,40.3,40.3h428.6
		c11,0,21.6-4.5,28.9-12.3C506.9,492.1,510.5,482.2,509.8,471.7z"/>
	<path class="st0" d="M223.9,403.4c7.9,9.3,20.1,14.8,32.7,14.8c12.8,0,25-5.6,32.7-14.8l111-130.4c6.4-8,7.5-17.3,3.1-26.3
		c-3.3-8-12.6-14-21.9-14h-52.2V40.4c0-22.2-18.1-40.3-40.3-40.3h-65.9c-21.5,0-38.9,18.1-38.9,40.3v192.3H132
		c-9.6,0-17.4,5-21.8,13.9c-4.6,8.9-3.5,18.3,3.1,26.5L223.9,403.4z M318.3,254.4h60.2c1.1,0,1.5,0.3,1.7,0.4v0.9l0.7,0.7
		c0.1,0.1,0.2,0.3,0.3,0.3c0,0.1-0.1,0.2-0.3,0.3l-0.1,0.1L270.2,387.5l-0.1,0.1c-3.8,5-8.6,7.4-14.9,7.4c-4.7,0-11.1-2.3-14.8-7.4
		l-0.1-0.1L129.7,257.3c0-0.1,0.1-0.3,0.1-0.4c0.1-0.3,0.2-0.7,0.3-1.1h58c8.3,0,15.1-6.8,15.1-15.1V40.4c0-10.1,9-17.1,17.1-17.1
		h65.9c10.1,0,17.1,9,17.1,17.1v199C303.2,247.7,310,254.4,318.3,254.4z"/>
</g>
</svg>
