<?xml version="1.0" encoding="UTF-8"?>
<svg id="Layer_1" xmlns="http://www.w3.org/2000/svg" version="1.1" viewBox="0 0 36 36">
  <!-- Generator: Adobe Illustrator 29.1.0, SVG Export Plug-In . SVG Version: 2.1.0 Build 142)  -->
  <defs>
    <style>
      .st0 {
        fill: #7ab5f4;
      }

      .st1 {
        fill: none;
        stroke: #0b4a99;
        stroke-linecap: round;
        stroke-miterlimit: 10;
        stroke-width: 1.3px;
      }
    </style>
  </defs>
  <rect class="st0" x="16.9" y="9" width="7" height="2.1"/>
  <rect class="st0" x="13.4" y="16.4" width="11.4" height="2.1"/>
  <rect class="st0" x="7.5" y="24.9" width="14.2" height="2.1"/>
  <g>
    <line class="st1" x1="3.2" y1=".9" x2="3.2" y2="35.1"/>
    <g>
      <line class="st1" x1="2.5" y1="1" x2=".9" y2="1"/>
      <line class="st1" x1="2.5" y1="5.9" x2=".9" y2="5.9"/>
      <line class="st1" x1="2.5" y1="10.7" x2=".9" y2="10.7"/>
      <line class="st1" x1="2.5" y1="15.6" x2=".9" y2="15.6"/>
      <line class="st1" x1="2.5" y1="20.4" x2=".9" y2="20.4"/>
      <line class="st1" x1="2.5" y1="25.3" x2=".9" y2="25.3"/>
      <line class="st1" x1="2.5" y1="30.1" x2=".9" y2="30.1"/>
      <line class="st1" x1="2.5" y1="35" x2=".9" y2="35"/>
      <line class="st1" x1="2.5" y1="3.5" x2="1.7" y2="3.5"/>
      <line class="st1" x1="2.5" y1="8.3" x2="1.7" y2="8.3"/>
      <line class="st1" x1="2.5" y1="13.2" x2="1.7" y2="13.2"/>
      <line class="st1" x1="2.5" y1="18" x2="1.7" y2="18"/>
      <line class="st1" x1="2.5" y1="22.8" x2="1.7" y2="22.8"/>
      <line class="st1" x1="2.5" y1="27.7" x2="1.7" y2="27.7"/>
      <line class="st1" x1="2.5" y1="32.5" x2="1.7" y2="32.5"/>
    </g>
  </g>
  <g>
    <rect class="st1" x="7.5" y="4.2" width="3.6" height="2.3"/>
    <rect class="st1" x="11.1" y="6.5" width="5.8" height="2.3"/>
    <rect class="st1" x="7.5" y="13.9" width="5.8" height="2.3"/>
    <rect class="st1" x="24.8" y="18.6" width="5.8" height="2.3"/>
    <rect class="st1" x="21.9" y="27.2" width="7.5" height="2.3"/>
    <rect class="st1" x="29.4" y="29.5" width="4.2" height="2.3"/>
    <rect class="st1" x="13.3" y="16.3" width="11.5" height="2.3"/>
    <rect class="st1" x="7.6" y="24.8" width="14.4" height="2.3"/>
    <rect class="st1" x="16.9" y="8.8" width="7" height="2.3"/>
  </g>
</svg>