<?xml version="1.0" encoding="UTF-8"?>
<svg id="Layer_1" data-name="Layer 1" xmlns="http://www.w3.org/2000/svg" viewBox="0 0 36 36">
  <defs>
    <style>
      .cls-1 {
        fill: none;
        stroke: #0b4a99;
        stroke-miterlimit: 10;
        stroke-width: 1.3px;
      }

      .cls-2 {
        fill: #7ab5f4;
      }

      .cls-3 {
        fill: #0b4a99;
      }
    </style>
  </defs>
  <polygon class="cls-2" points="4.73 33.19 4.9 32.9 10.07 24.44 12.84 23.19 15.8 23.85 18.37 23.19 20.88 18.74 22.86 15.54 24.9 15.01 27.34 15.47 29.45 15.41 31.23 13.82 33.8 8.35 35.45 6.88 35.45 33.19 4.73 33.19"/>
  <path class="cls-3" d="M35.97,33.18c-.03-.18-.26-.54-.48-.54H3.33V.48c0-.11-.12-.24-.35-.43L2.92,0H0v.84l.06.07c.19.22.31.35.43.35h1.61v1.46c-.44-.04-.8.08-.96.33-.12.19-.12.42,0,.61.17.26.52.38.96.34v1.48c-.19.02-.41,0-.64-.02-.54-.04-1.15-.09-1.44.4v.02s-.01.41-.01.41l.06.07c.19.22.31.35.43.35h1.61v1.46c-.44-.05-.79.07-.96.32-.12.18-.12.42,0,.61.17.26.53.39.97.35v1.48c-.19.02-.41,0-.64-.02-.54-.04-1.15-.09-1.44.4v.02s-.01.38-.01.38v.05c.08.12.43.4.55.4h1.54v1.46c-.64-.07-.89.2-.97.32-.12.18-.12.39,0,.58.17.27.53.41.98.38v1.48c-.19.02-.42,0-.65-.01-.54-.04-1.1-.08-1.43.32l-.02.03v.49l.02.03c.1.12.39.39.6.39h1.47v1.4c-.46-.03-.81.11-.98.38-.11.18-.11.4,0,.58.08.12.34.39.97.32v1.46H.54c-.13,0-.48.28-.54.4v.45s.03.03.03.03c.02.02.08.09.12.14.13.17.18.23.25.23h1.68v1.47c-.44-.04-.8.08-.97.35-.12.19-.12.42,0,.61.17.25.52.37.96.32v1.46H.47c-.11,0-.24.12-.42.34l-.06.07v.44l.04.03s.08.09.12.14c.13.17.18.23.25.23h1.68v1.46c-.44-.05-.8.08-.96.34-.12.19-.12.42,0,.61.17.26.52.38.96.34v1.46H.47c-.11,0-.24.12-.43.35l-.06.07v.42l.06.07c.19.22.31.35.43.35h1.61v1.61c0,.24.41.49.62.49s.62-.25.62-.49v-1.61h1.46c-.05.44.08.8.33.96.19.12.42.12.61,0,.26-.17.38-.52.33-.96h1.46v1.68c0,.06.03.12.1.17.13.12.43.25.6.24.19-.02.55-.28.55-.48v-1.61h1.46c-.05.44.07.79.32.96.19.12.42.12.61,0,.26-.17.39-.52.35-.97h1.47v1.68c0,.11.11.23.29.31.2.09.51.14.71-.03.03-.03.25-.35.25-.42v-1.54h1.46c-.07.64.2.89.32.97.18.12.39.12.58,0,.27-.17.41-.53.38-.98h1.4v1.4c0,.3.2.57.49.67.07.03.14.04.21.04.17,0,.32-.07.43-.21.04-.05.18-.44.18-.5v-1.4h1.4c-.03.45.11.81.38.98.18.11.4.11.58,0,.12-.08.39-.34.32-.97h1.46v1.54c0,.07.21.39.25.42.2.17.51.12.71.03.18-.08.29-.2.29-.31v-1.68h1.47c-.04.44.08.8.35.97.19.12.42.12.61,0,.25-.17.37-.53.32-.96h1.46v1.61c0,.2.36.46.55.48.17.02.47-.12.6-.24.07-.06.1-.12.1-.17v-1.68h1.47c-.05.44.08.8.34.96.19.12.42.12.61,0,.26-.17.38-.52.34-.96h1.46v1.61c0,.25.29.44.56.47.26.03.58-.07.67-.46.07-.31.07-1.97.01-2.32Z"/>
  <path class="cls-3" d="M2.58,33.57h.01s32.99,0,32.99,0h.04l.3-.3.02-8.63v-.03l-.15-.21h-.03c-.5-.23-1.01-.49-1.51-.73-1.71-.84-3.47-1.72-5.49-1.57-.71.05-1.36.3-2,.53-.64.24-1.29.48-1.98.52-1.68.09-3.29-.63-4.58-2.06.18-.34.36-.68.54-1.02.64-1.22,1.29-2.49,2.08-3.6,1.25-1.09,2.33-.82,3.46-.53,1.08.27,2.2.56,3.6-.21.52-.29,1.05-.78,1.44-1.35.74-1.06,1.39-2.35,2.02-3.6.44-.87.9-1.77,1.37-2.57v14.65c0,.1.26.4.34.44.2.09.41.09.59-.02.19-.11.31-.31.32-.56V5.81s0-.03,0-.03c-.12-.37-.29-.58-.52-.61-.25-.03-.54.17-.79.57-.74,1.17-1.4,2.49-2.04,3.76-.71,1.41-1.45,2.87-2.29,4.13-.72,1.08-1.94,1.58-3.17,1.3-.19-.04-.39-.13-.58-.21-.18-.07-.36-.15-.55-.2-1.77-.46-3.56.2-4.58,1.69-.43.63-.8,1.35-1.15,2.05-.33.65-.67,1.33-1.07,1.92-.21-.11-.84-.73-1.12-1-.15-.15-.27-.27-.33-.32-2.2-1.89-4.16-2.43-6.55-1.8-2.82.75-3.87,3.21-5.21,5.42-1.26,2.07-3.44,1.39-3.85,2.06l-.02.02-.03,8.39c0,.28.2.52.47.6ZM34.73,32.38l-28.81-.1,4.68-7.31c.69-.9,1.89-1.35,2.98-1.11.2.04.4.13.6.21.19.08.38.16.58.21,1.95.48,3.82-.32,4.82-2.05,1.84,1.89,4.37,2.6,6.79,1.89.27-.08.52-.19.77-.29.28-.12.56-.24.85-.31,1.94-.5,3.42.2,4.99.94.56.26,1.13.54,1.75.76v7.17ZM15.38,23.14c-.26-.03-.5-.14-.74-.24-.18-.08-.36-.16-.54-.2-1.9-.49-3.78.27-4.78,1.95l-2.87,4.33-2.08,3.4h-1.01v-6.56c.39-.62,2.24-.49,3.8-2.81,1.44-2.13,2.39-4.66,5.28-4.9,2.49-.21,3.87,1.08,5.45,2.57.24.22.48.45.72.67-.62,1.31-1.79,1.97-3.23,1.79Z"/>
  <path class="cls-1" d="M2.48,11.65S8.22-3.58,13.16,3.14s7.71,12.4,11.54,7.12S31.16.11,32.95,3.34s2.51,2.9,2.51,2.9"/>
</svg>