<?xml version="1.0" encoding="utf-8"?>
<!-- Generator: Adobe Illustrator 28.1.0, SVG Export Plug-In . SVG Version: 6.00 Build 0)  -->
<svg version="1.1" id="Layer_1" xmlns="http://www.w3.org/2000/svg" xmlns:xlink="http://www.w3.org/1999/xlink" x="0px" y="0px"
	 viewBox="0 0 512 512" style="enable-background:new 0 0 512 512;" xml:space="preserve">
<style type="text/css">
	.st0{fill:#3B3091;}
</style>
<g>
	<path class="st0" d="M361.9,44.4C332.9,15.4,295.4,0,254.4,0c-83.6,0-150.2,68.3-150.2,150.2h22.2c0-71.7,58-129.7,129.7-129.7
		c34.1,0,68.3,13.7,92.2,37.5c23.9,23.9,37.5,56.3,37.5,90.5c0,61.4-34.1,90.5-70,119.5c-34.1,29-68.3,58-68.3,114.3v68.3h22.2
		v-68.3c0-46.1,29-70,61.4-99C367,252.6,408,218.5,408,146.8C406.3,110.9,389.2,73.4,361.9,44.4z"/>
	<rect x="245.9" y="486.4" class="st0" width="22.2" height="25.6"/>
</g>
</svg>
