<?xml version="1.0" encoding="utf-8"?>
<!-- Generator: Adobe Illustrator 28.1.0, SVG Export Plug-In . SVG Version: 6.00 Build 0)  -->
<svg version="1.1" id="Layer_1" xmlns="http://www.w3.org/2000/svg" xmlns:xlink="http://www.w3.org/1999/xlink" x="0px" y="0px"
	 viewBox="0 0 512 512" style="enable-background:new 0 0 512 512;" xml:space="preserve">
<style type="text/css">
	.st0{fill:#0B4A99;}
</style>
<g>
	<path class="st0" d="M409.6,148.3C407.9,112.2,391,74.5,363.1,45l-0.1-0.1C333.7,15.5,296.1,0,254.4,0
		c-83.7,0-151.8,68.1-151.8,151.8v3.9h29.7v-3.9c0-68.2,55.5-123.8,123.8-123.8c32.6,0,65.5,13.4,88,35.8
		c23.1,23.1,35.8,53.7,35.8,86.3c0,60.1-34.3,87.8-67.5,114.6l-0.2,0.2c-33.7,28.6-68.5,58.2-68.5,115.4v71.2h29.7v-71.2
		c0-41.8,25.6-64.6,55.2-91l3.9-3.5l1.4-1.2c35.5-30.3,75.7-64.7,75.7-136.2L409.6,148.3z"/>
	<rect x="242.1" y="478.9" class="st0" width="29.7" height="33.1"/>
</g>
</svg>
