<?xml version="1.0" encoding="utf-8"?>
<!-- Generator: Adobe Illustrator 28.1.0, SVG Export Plug-In . SVG Version: 6.00 Build 0)  -->
<svg version="1.1" id="Layer_1" xmlns="http://www.w3.org/2000/svg" xmlns:xlink="http://www.w3.org/1999/xlink" x="0px" y="0px"
	 viewBox="0 0 512 512" style="enable-background:new 0 0 512 512;" xml:space="preserve">
<style type="text/css">
	.st0{fill:#0B4A99;}
</style>
<g>
	<path class="st0" d="M505.3,197.5l-233-178.9l-0.4-0.3c-6.4-4.2-16.3-4.2-22.7,0l-0.2,0.1L6.2,200.3c-6.7,4.7-8.1,13.8-3.3,21.4
		c2.5,4.6,7.4,7.5,12.8,7.5c2,0,6.5,0,9.9-3l36-27c-0.9,2-1.3,4.2-1.3,6.6v291.2h392.3V196.4l33.4,25.7c3.3,3,7.4,4.5,11.6,4
		c4-0.4,7.7-2.5,10.2-5.8c2.8-2.4,4.4-6,4.3-9.9C512,205.3,509.4,200.3,505.3,197.5z M307.3,465.5H202.8V327.7h104.5V465.5z
		 M261.2,49.1l170.3,131.1c-6.9,1.9-11.9,8.2-11.9,15.8v269.4h-80.8V296.1H169.9v169.4H93.1V205.7c0-9.2-7.2-16.4-16.4-16.4
		c-0.8,0-1.5,0.1-2.2,0.2L261.2,49.1z"/>
</g>
</svg>
