<?xml version="1.0" encoding="UTF-8"?>
<svg id="Layer_1" data-name="Layer 1" xmlns="http://www.w3.org/2000/svg" viewBox="0 0 512 512">
  <defs>
    <style>
      .cls-1 {
        fill: #2355a3;
        stroke-width: 0px;
      }
    </style>
  </defs>
  <path class="cls-1" d="M0,21.93c2.33.05,4.66.16,6.99.16,166.01,0,332.01,0,498.02,0h6.77v99.99c-1.78.09-3.55.25-5.31.25-167.17.01-334.35.01-501.52,0-1.65,0-3.3-.24-4.95-.37C0,88.62,0,55.28,0,21.93Z"/>
  <path class="cls-1" d="M0,334.02h233.63v155.88c-2.38,0-4.49,0-6.6,0-73.51,0-147.02,0-220.53,0-2.16,0-4.33.1-6.49.16v-156.04Z"/>
  <path class="cls-1" d="M0,155.97c27.16-.04,54.32-.1,81.48-.11,48.66-.02,97.32,0,145.97,0h6.15v144.43c-2.04.1-4.13.28-6.21.28-73.65.01-147.31,0-220.96.03-2.15,0-4.29.27-6.44.42C0,252.67,0,204.32,0,155.97Z"/>
  <path class="cls-1" d="M512,334.37v155.12h-244.51v-155.12h244.51Z"/>
  <path class="cls-1" d="M511.98,156.28v143.96h-244.57v-143.96h244.57Z"/>
</svg>