<?xml version="1.0" encoding="UTF-8"?>
<svg id="Layer_1" data-name="Layer 1" xmlns="http://www.w3.org/2000/svg" viewBox="0 0 512 512">
  <defs>
    <style>
      .cls-1 {
        fill: #2355a3;
        stroke-width: 0px;
      }
    </style>
  </defs>
  <path class="cls-1" d="M456.75,173.32c.13-21.36-6.68-39.32-20.24-53.38-24.9-25.81-50.53-51.7-75.31-76.73l-11.37-11.48c-5.15-5.21-10.66-9.77-15.38-13.54-10.2-8.17-24.3-17.54-42.98-17.54h-.11c-17.5.04-35,.03-52.49.02-30.6-.02-62.24-.03-93.38.2-10.08.08-20.19,1.71-29.25,4.74-36.3,12.12-59.81,44.84-59.88,83.36-.15,82.2-.12,165.77-.09,246.58,0,29.67.02,59.34.02,89.01,0,1.67.09,3.22.17,4.59,2.27,38.34,28.7,70.69,65.76,80.49,2.53.67,5.04,1.27,7.47,1.85,1.08.26,2.15.51,3.22.77l1.59.39h244.13l1.9-.57c2.05-.61,4.2-1.16,6.49-1.74,5.42-1.37,11.56-2.93,17.45-5.74,33.9-16.18,51.88-44.66,51.98-82.37.09-33.65.07-67.85.05-100.92-.03-48.51-.05-98.67.25-147.98ZM283.83,448.22c-9.27-.01-18.55-.03-27.82-.03v13.62h0v-13.62h-107.94c-7.87,0-13.35-1.54-17.76-4.99-6.61-5.18-9.55-12.1-9.53-22.46.07-36.44.06-73.48.05-109.3,0-13.75,0-27.5,0-41.24v-45.04c0-44.16,0-88.31-.02-132.47,0-8.05,1.48-13.57,4.82-17.88,5.1-6.58,11.75-9.65,20.96-9.67,42.8-.07,84.48-.08,130.64-.07.16,0,.29,0,.4.02.02.05.03.1.05.16,1.27,4.14,1.97,8.44,2.04,12.43.25,15.43.25,31.17.26,46.4,0,5.61,0,11.23.02,16.84.05,22.89,13.22,36.08,36.12,36.17,5.29.02,10.58.03,15.87.04,15.69.03,31.91.07,47.79.42,3.38.07,7.32.86,11.77,2.34.05,1.08.14,2.17.23,3.25.1,1.16.19,2.25.19,3.09,0,26.86,0,53.71,0,80.57,0,50.39,0,102.49.06,153.74.02,16.29-6.69,21.61-13.26,24.67-3.7,1.72-8.97,2.74-14.47,2.8-26.79.28-54.06.24-80.45.21Z"/>
</svg>