<?xml version="1.0" encoding="UTF-8"?>
<svg id="Layer_1" data-name="Layer 1" xmlns="http://www.w3.org/2000/svg" viewBox="0 0 512 512">
  <defs>
    <style>
      .cls-1 {
        fill: #2355a3;
        stroke-width: 0px;
      }
    </style>
  </defs>
  <path class="cls-1" d="M0,354.15c2.25-5.28,6.51-6.71,11.88-6.68,20.03.11,40.07.06,60.11.03,13.92-.02,27.15-2.73,38.56-11.18,9.86-7.3,17.44-16.76,23.92-27.08,12.85-20.49,22.12-42.75,31.77-64.83,12-27.44,23.91-54.95,40.25-80.19,12.51-19.31,27.3-36.81,46.26-50.04,17.94-12.52,38.28-20.17,60.08-21.47,24.31-1.45,48.75-.91,73.13-1.22,3.95-.05,7.92-.21,11.85.05,3.52.24,4.72-.83,4.67-4.54-.21-15.4-.08-30.8-.08-46.21,0-1.36-.02-2.73.04-4.09.17-3.82,1.6-6.92,5.32-8.46,3.65-1.51,7.12-.75,9.89,1.82,5.39,5,10.58,10.21,15.78,15.41,24.37,24.36,48.74,48.72,73.06,73.13,2,2,3.67,4.33,5.49,6.51v5.73c-8.27,8.63-16.42,17.37-24.84,25.85-21.78,21.93-43.67,43.75-65.53,65.6-1.35,1.35-2.69,2.72-4.17,3.91-5.82,4.7-13.67,1.64-14.83-5.78-.23-1.47-.21-2.99-.21-4.48-.01-15.67-.13-31.35.08-47.02.05-3.72-1.18-4.55-4.67-4.53-22.35.14-44.7.34-67.04,0-24.4-.36-42.79,10.11-56.9,29.53-13.4,18.44-22.37,39.16-31.82,59.68-11.83,25.7-23.32,51.59-36.13,76.8-12.44,24.47-29.44,45.7-50.77,63.23-10.89,8.95-23.44,14.67-36.61,19.34-16.68,5.92-33.91,7.65-51.46,7.54-18.4-.12-36.79-.11-55.19.02-5.41.04-9.61-1.5-11.91-6.71v-59.71Z"/>
  <path class="cls-1" d="M512,386.87c-8.38,8.72-16.63,17.56-25.15,26.14-21.68,21.84-43.48,43.56-65.24,65.33-1.06,1.06-2.18,2.05-3.24,3.11-2.88,2.88-6.33,3.86-10.1,2.38-3.96-1.56-5.8-4.82-5.83-9.02-.05-7.77-.03-15.54-.03-23.3,0-8.72-.21-17.45.09-26.16.14-4.09-1.31-4.94-5.12-4.9-20.17.23-40.34.43-60.5.15-17.2-.24-34.45-1.58-50.88-6.8-18.01-5.73-34.8-14.26-48.04-28.28-8.2-8.68-15.97-17.78-23.74-26.86-.83-.97-1.06-3.45-.42-4.53,14-23.42,25.16-48.25,36.31-73.07.27-.59.6-1.15,1.1-2.1,4.73,8.8,8.93,17.44,13.88,25.63,7.69,12.73,15.96,25.06,29.17,33,9.51,5.73,19.74,9.53,30.83,9.69,24.66.35,49.33.14,73.99.29,3.27.02,3.36-1.7,3.36-4.13-.05-16.22-.04-32.43-.02-48.65,0-3.45.18-6.86,3.26-9.25,3.9-3.02,8.65-2.72,12.94,1.36,6.61,6.29,12.99,12.81,19.44,19.26,22.83,22.82,45.66,45.63,68.45,68.5,1.99,2,3.67,4.32,5.49,6.5v5.73Z"/>
  <path class="cls-1" d="M0,98.13c2.13-4.82,5.91-6.7,11.07-6.67,21.94.11,43.89-.18,65.83.2,32.55.57,61.49,11.22,85.54,33.38,9.35,8.62,17.32,18.75,25.93,28.17,1.66,1.81,1.3,3.4.19,5.45-8.03,14.83-16.13,29.62-23.76,44.66-4.79,9.44-8.8,19.28-13.57,29.85-1.32-2.34-2.41-4.07-3.31-5.9-6.86-13.95-14.4-27.48-24.51-39.42-12.4-14.65-28.31-22.57-47.33-23.11-21.38-.62-42.79-.28-64.19-.21-5.38.02-9.65-1.4-11.9-6.68v-59.71Z"/>
</svg>