<?xml version="1.0" encoding="UTF-8"?>
<svg id="Layer_1" data-name="Layer 1" xmlns="http://www.w3.org/2000/svg" viewBox="0 0 512 512">
  <defs>
    <style>
      .cls-1 {
        fill: #2355a3;
        stroke-width: 0px;
      }
    </style>
  </defs>
  <path class="cls-1" d="M485.51,295.42c-6.88,0-13.77-2.63-19.02-7.88L255.73,76.78,46.33,286.18c-10.5,10.51-27.54,10.51-38.04,0-10.51-10.5-10.51-27.54,0-38.04L232.54,23.88c12.81-12.79,33.61-12.77,46.38,0l225.61,225.61c10.51,10.5,10.51,27.54,0,38.04-5.25,5.25-12.14,7.88-19.02,7.88Z"/>
  <path class="cls-1" d="M441.2,289l-173.82-173.83c-5.06-5.06-13.26-5.06-18.32,0l-177.44,177.44c-6.3,6.3-9.84,14.84-9.84,23.75v166.76c0,8.06,6.53,14.59,14.59,14.59h100.41c8.06,0,14.59-6.53,14.59-14.59v-113.55c0-8.06,6.53-14.59,14.59-14.59h100.89c8.06,0,14.59,6.53,14.59,14.59v113.55c0,8.06,6.53,14.59,14.59,14.59h100.41c8.06,0,14.59-6.53,14.59-14.59v-170.37c0-8.91-3.54-17.45-9.84-23.75Z"/>
</svg>