<?xml version="1.0" encoding="UTF-8"?>
<svg id="Layer_1" data-name="Layer 1" xmlns="http://www.w3.org/2000/svg" viewBox="0 0 512 512">
  <defs>
    <style>
      .cls-1 {
        fill: #2355a3;
        stroke-width: 0px;
      }
    </style>
  </defs>
  <path class="cls-1" d="M510.14,54.8c-5.32-23.12-21.27-41.59-43.75-50.66-4.06-1.64-8.06-2.65-11.93-3.63-1.64-.42-3.19-.81-4.7-1.24l-1.38-.39h-18.57l-1.9,1.06c-16.56,2.76-30.87,10.95-43.69,25.01-33.23,36.44-66.49,72.86-99.75,109.28-38,41.61-77.3,84.65-115.92,127.01-3.81,4.18-6.84,9.21-8.54,14.15-7.79,22.66-15.99,47.17-25.07,74.95-4.8,14.68-2.38,28.27,6.99,39.28,7.92,9.3,18.37,14.13,29.69,14.13,5.84,0,11.92-1.29,17.99-3.91l1.19-.52c22.52-9.73,45.81-19.78,68.56-30.12,6.29-2.86,12.25-7.14,16.78-12.07,37.27-40.54,75.02-81.89,111.52-121.87l26.05-28.53c7.74-8.47,15.49-16.94,23.23-25.4,18.3-19.99,37.22-40.66,55.71-61.13,16.47-18.24,22.84-42.07,17.47-65.39ZM232.87,319.26l-33.97,14.95,11.79-35.2,22.18,20.26ZM253.34,261.68l9.94-10.89c11.83-12.96,23.58-25.84,35.34-38.71,43.1-47.19,86.21-94.38,129.32-141.57.46-.5.92-1.01,1.37-1.52,1.22-1.35,2.38-2.63,3.53-3.79,4.16-4.15,9.04-4.44,13.04-.78,4.14,3.78,4.31,8.81.46,13.12-9.07,10.14-18.44,20.36-27.5,30.25-3.68,4.01-7.36,8.03-11.04,12.05-46.96,51.42-93.93,102.84-140.9,154.25l-13.57-12.4Z"/>
  <path class="cls-1" d="M470.68,280.15c0-1.8,0-3.85-.28-6.08-1.17-9.42-6.29-17.76-14.03-22.87-7.63-5.03-17.1-6.44-25.99-3.88-14.18,4.09-22.65,16.17-22.66,32.31,0,25.01,0,57.48,0,67.49,0,13.46,0,23.44-.02,57.07-.02,26.95-18.74,45.79-45.51,45.81-93.42.06-176.49.06-253.96,0-26.13-.02-45.12-18.82-45.17-44.69-.12-75.57-.2-164.72.18-252.95.03-6.7,1.55-13.76,4.18-19.38,8.03-17.16,21.82-25.51,42.15-25.53l33.13-.02c1.58,0,46.49,0,73.3,0,2.68,0,5.31-.02,8.07-.25,15.18-1.26,27.33-13.67,28.26-28.86.55-9.05-2.3-17.4-8.05-23.51-6.27-6.67-15.64-10.35-26.38-10.36-22.07-.01-69.96-.03-72.74-.03q-1.96,0-3.73,0c-2.61.01-9.14.05-31.92.12-9.6.03-18.01.92-25.7,2.71-24.61,5.75-45.55,18.72-60.57,37.51C8.19,103.59.2,126.88.13,152.11-.05,217.38,0,283.74.04,347.91c.02,19.08.03,38.16.04,57.24,0,17.09,3.17,31.86,9.68,45.15,9.9,20.21,23.27,35.78,39.74,46.28,16.54,10.54,36.31,16.02,58.74,16.29,16.54.2,33.22.26,49.79.26,12.94,0,25.81-.04,38.49-.07,12.86-.04,25.72-.07,38.58-.07h35.21c30.51,0,61.02,0,91.53,0h.08c17.62,0,32.68-3.17,46.02-9.68,20.25-9.88,35.84-23.26,46.35-39.75,10.57-16.57,16.03-36.34,16.24-58.76.35-37.42.31-45.58.23-61.85-.04-9.36-.1-41.54-.1-62.8Z"/>
</svg>