<?xml version="1.0" encoding="UTF-8"?>
<svg id="Layer_1" data-name="Layer 1" xmlns="http://www.w3.org/2000/svg" viewBox="0 0 512 512">
  <defs>
    <style>
      .cls-1 {
        fill: #2355a3;
        stroke-width: 0px;
      }
    </style>
  </defs>
  <g>
    <rect class="cls-1" x="43.41" y="199.17" width="425.19" height="113.66" rx="23.11" ry="23.11" transform="translate(-106.04 256) rotate(-45)"/>
    <path class="cls-1" d="M39.46,307.38l165.17,165.17c14.56,14.56,4.25,39.46-16.35,39.46l-165.15-.02c-12.76,0-23.11-10.35-23.11-23.11L0,323.72c0-20.59,24.89-30.91,39.46-16.35Z"/>
    <path class="cls-1" d="M307.38,39.46l165.17,165.17c14.56,14.56,39.46,4.25,39.46-16.35l-.02-165.15c0-12.76-10.35-23.11-23.11-23.11L323.72,0c-20.59,0-30.91,24.89-16.35,39.46Z"/>
  </g>
  <g>
    <rect class="cls-1" x="199.17" y="43.41" width="113.66" height="425.19" rx="23.11" ry="23.11" transform="translate(-106.04 256) rotate(-45)"/>
    <path class="cls-1" d="M472.54,307.38l-165.17,165.17c-14.56,14.56-4.25,39.46,16.35,39.46l165.15-.02c12.76,0,23.11-10.35,23.11-23.11l.02-165.15c0-20.59-24.89-30.91-39.46-16.35Z"/>
    <path class="cls-1" d="M204.62,39.46L39.46,204.62C24.89,219.18,0,208.87,0,188.28L.02,23.13C.02,10.37,10.37.02,23.13.02L188.28,0c20.59,0,30.91,24.89,16.35,39.46Z"/>
  </g>
</svg>