<?xml version="1.0" encoding="UTF-8"?>
<svg id="Layer_1" data-name="Layer 1" xmlns="http://www.w3.org/2000/svg" viewBox="0 0 512 512">
  <defs>
    <style>
      .cls-1 {
        fill: #2355a3;
        stroke-width: 0px;
      }
    </style>
  </defs>
  <path class="cls-1" d="M256,450.66c-65.61,0-131.22,0-196.83,0-28.32,0-51.78-18.78-57.83-46.47-.87-3.99-1.27-8.16-1.28-12.25C0,311.14-.02,230.34.02,149.53c.02-32.47,26.02-58.53,58.53-58.6,37.17-.09,74.34-.03,111.5.02,1.99,0,2.82-.41,3.34-2.57,3.91-16.18,17.91-27.04,34.61-27.04,32,0,64,0,95.99,0,16.77,0,30.86,11.02,34.69,27.28.46,1.94,1.18,2.34,3.02,2.34,37.01-.05,74.01-.06,111.02-.04,28.48.02,51.95,18.82,57.97,46.61.83,3.84,1.23,7.84,1.24,11.77.07,80.96.08,161.93.04,242.89-.01,32.39-26.19,58.45-58.66,58.47-65.77.03-131.54,0-197.32,0ZM386.37,270.87c.02-71.9-58.28-130.32-130.18-130.46-71.92-.14-130.53,58.35-130.57,130.31-.04,71.87,58.39,130.42,130.18,130.45,72.06.03,130.55-58.35,130.57-130.3ZM439.37,186.94c13.82.05,25.06-11.05,25.1-24.79.04-13.75-11.15-25.01-24.89-25.04-13.7-.04-24.98,11.23-24.99,24.96,0,13.63,11.15,24.83,24.78,24.88Z"/>
  <path class="cls-1" d="M354.04,270.83c-.04,54.34-43.9,98.09-98.26,97.99-54.19-.09-97.94-44.01-97.82-98.2.13-54.26,43.97-97.99,98.14-97.88,54.27.11,97.97,43.87,97.94,98.09Z"/>
</svg>