<?xml version="1.0" encoding="UTF-8"?>
<svg id="Layer_1" data-name="Layer 1" xmlns="http://www.w3.org/2000/svg" viewBox="0 0 512 512">
  <defs>
    <style>
      .cls-1 {
        fill: #2355a3;
        stroke-width: 0px;
      }
    </style>
  </defs>
  <path class="cls-1" d="M.34,264.55c0-62.64-.02-125.27,0-187.91C.36,36.08,27.5,8.8,67.89,8.79c125.74-.02,251.49-.03,377.23,0,39.71,0,67.17,27.31,67.19,66.85.04,125.94.04,251.88,0,377.82-.01,39.99-27.37,67.18-67.53,67.19-125.52.02-251.04.02-376.56,0-40.84,0-67.86-27.17-67.87-68.2-.01-62.64,0-125.27,0-187.91ZM43.06,157.61h426.59c0-27.09,0-53.72,0-80.35,0-18.13-7.76-25.82-26.02-25.82-124.86,0-249.72,0-374.58,0-2,0-4.01-.08-6,.06-10.7.73-19.74,9.08-19.87,19.74-.35,28.63-.12,57.26-.12,86.38ZM192.63,317.57h127.17v-116.49h-127.17v116.49ZM319.86,477.7v-116.48h-127.17v116.48h127.17ZM149.53,201.29H43.45v116.24h106.07v-116.24ZM363.46,201.04v116.48h105.85v-116.48h-105.85ZM43.32,360.95c-.14,1.47-.29,2.33-.29,3.18-.01,30.62-.1,61.23.02,91.85.05,13.13,9.09,21.93,22.41,21.99,22.41.11,44.83.03,67.24.03,5.48,0,10.96,0,16.56,0v-117.06H43.32ZM469.56,361.17h-106.07v116.8c28.89,0,57.28.17,85.66-.09,10.74-.1,20.12-8.65,20.26-19.21.41-32.35.15-64.72.15-97.5Z"/>
</svg>