<?xml version="1.0" encoding="UTF-8"?>
<svg id="Layer_1" data-name="Layer 1" xmlns="http://www.w3.org/2000/svg" viewBox="0 0 512 512">
  <defs>
    <style>
      .cls-1 {
        fill: #2355a3;
        stroke-width: 0px;
      }
    </style>
  </defs>
  <path class="cls-1" d="M190.34,0c-23.01,0-41.34,12.29-49.01,32.88-.41,1.1-.78,2.2-1.12,3.32-11.27-.62-22.67,1.23-33.47,5.48-13.61,5.36-26.07,14.47-36.03,26.35-9.8,11.68-17.1,25.95-21.11,41.26-4,15.25-4.7,31.42-2.03,46.77,1.96,11.25,5.72,22,11.02,31.64-3.98,1.78-7.76,4.05-11.28,6.76-7.85,6.06-14.21,14.27-18.4,23.75-4.11,9.29-6.09,19.71-5.74,30.16.35,10.4,3,20.74,7.68,29.91,3.76,7.38,8.81,13.96,14.78,19.32-3.81,4.24-7.08,8.96-9.72,14.03-5.12,9.86-7.75,20.94-7.61,32.04.14,11.11,3.04,22.12,8.39,31.86,5.35,9.74,13.1,18.09,22.4,24.15,7.95,5.19,16.97,8.65,26.33,10.16.59,10.15,3.34,20.39,8.02,29.77,5.06,10.13,12.33,19.21,21.04,26.24,8.84,7.14,19.09,12.13,29.64,14.44,9.1,1.99,18.35,1.98,27.04,0,.26.48.53.96.8,1.43,11.14,19.24,32.19,30.27,57.76,30.27,7.25,0,13.13-5.88,13.13-13.13V65.64c0-.9,0-1.85.02-2.83.1-12.9.26-34.5-14.25-49.13-9.01-9.08-21.89-13.68-38.28-13.68ZM100.03,127.6c2.13-5.38,5.43-10.25,9.55-14.09,4.3-4,9.46-6.86,14.93-8.27,5.71-1.47,11.65-1.34,17.19.37,6.93,2.14,10.81,9.49,8.67,16.42s-9.49,10.81-16.42,8.67c-.91-.28-1.88-.29-2.9-.03-1.24.32-2.48,1.03-3.59,2.06-1.28,1.19-2.33,2.75-3.02,4.52-.72,1.82-1.04,3.78-.94,5.69.1,1.75.56,3.38,1.33,4.72,3.62,6.28,1.45,14.31-4.83,17.93-2.06,1.19-4.31,1.75-6.53,1.75-4.55,0-8.96-2.36-11.39-6.58-2.8-4.87-4.46-10.52-4.78-16.35-.32-5.67.63-11.48,2.73-16.81ZM137.47,349.9h-.14c-7.25-.07-13.07-6.01-12.99-13.26.02-2.35-.5-4.57-1.5-6.42-.93-1.7-2.22-3.04-3.84-3.97-1.67-.96-3.65-1.43-5.78-1.43-.05,0-.11,0-.16,0-7.18,0-13.04-5.78-13.12-12.97-.09-7.25,5.72-13.2,12.97-13.28.15,0,.3,0,.46,0,6.65,0,13.11,1.7,18.73,4.93,5.8,3.33,10.58,8.24,13.81,14.17,3.14,5.78,4.77,12.43,4.7,19.25-.07,7.2-5.94,12.99-13.13,12.99ZM142.94,270.72c-.68,0-1.36-.01-2.04-.04-7.25-.27-12.9-6.36-12.63-13.61.27-7.24,6.35-12.88,13.61-12.63,5.41.21,10.86-1.15,15.76-3.92,5.13-2.89,9.63-7.29,13.04-12.73,3.53-5.64,5.82-12.29,6.62-19.25.81-7.01.09-14.2-2.08-20.8-2.12-6.45-5.6-12.22-10.05-16.68-5.12-5.14-5.11-13.45.03-18.57,5.14-5.12,13.45-5.11,18.57.03,7.33,7.35,13,16.69,16.39,27.02,3.35,10.18,4.46,21.24,3.23,32-1.25,10.82-4.86,21.25-10.45,30.18-5.72,9.13-13.46,16.62-22.39,21.66-8.53,4.81-18.04,7.33-27.61,7.33ZM241.7,326.72c0,7.25-5.87,13.13-13.12,13.14-6.06,0-11.89,1.38-16.87,3.97-4.76,2.47-8.68,6.04-11.36,10.32-2.62,4.21-4.03,9.11-4.07,14.18-.06,7.22-5.92,13.03-13.13,13.03h-.1c-7.25-.06-13.08-5.98-13.03-13.23.08-9.92,2.86-19.56,8.06-27.88,5.16-8.26,12.6-15.08,21.51-19.71,8.69-4.52,18.71-6.92,28.96-6.93h.01c7.25,0,13.12,5.87,13.13,13.12Z"/>
  <path class="cls-1" d="M481.15,278.28c4.68-9.18,7.34-19.52,7.68-29.92.35-10.44-1.64-20.87-5.74-30.16-4.19-9.48-10.56-17.69-18.41-23.76-3.51-2.71-7.3-4.97-11.27-6.75,5.31-9.64,9.06-20.39,11.02-31.64,2.67-15.34,1.97-31.51-2.03-46.77-4.01-15.31-11.31-29.57-21.11-41.26-9.96-11.88-22.42-20.99-36.03-26.35-10.8-4.25-22.21-6.11-33.47-5.48-.41-1.37-.88-2.73-1.4-4.07-7.84-20.12-26.06-32.13-48.73-32.13-16.39,0-29.27,4.6-38.28,13.68-14.51,14.62-14.35,36.22-14.25,49.13,0,.99.02,1.94.02,2.84v433.23c0,7.25,5.88,13.13,13.13,13.13,25.57,0,46.62-11.03,57.76-30.27.27-.47.54-.95.8-1.43,8.69,1.98,17.94,1.99,27.04,0,10.56-2.31,20.81-7.3,29.65-14.44,8.71-7.03,15.98-16.11,21.04-26.24,4.68-9.39,7.43-19.62,8.02-29.77,9.36-1.5,18.38-4.97,26.32-10.16,9.31-6.07,17.05-14.42,22.41-24.16,5.35-9.73,8.25-20.75,8.39-31.86.14-11.1-2.49-22.19-7.61-32.05-2.63-5.07-5.91-9.79-9.72-14.03,5.97-5.36,11.01-11.94,14.78-19.32ZM313.33,184.09c1.08-7.17,7.77-12.11,14.94-11.03,7.17,1.08,12.11,7.77,11.03,14.94-1.03,6.87-.54,14.07,1.43,20.85,1.95,6.72,5.32,12.9,9.75,17.87,4.27,4.79,9.45,8.37,14.98,10.36,5.3,1.91,10.9,2.33,16.2,1.23,7.1-1.48,14.05,3.07,15.53,10.17,1.48,7.1-3.07,14.05-10.17,15.53-3.69.77-7.45,1.15-11.22,1.15-6.48,0-12.99-1.13-19.23-3.38-9.64-3.47-18.52-9.55-25.7-17.6-7.01-7.87-12.32-17.56-15.36-28.01-3.02-10.39-3.78-21.49-2.18-32.09ZM324.25,323.56c-4.39-5.14-7.26-11.35-8.3-17.96-1.03-6.56-.25-13.36,2.26-19.68,2.67-6.74,10.3-10.04,17.04-7.37,6.74,2.67,10.04,10.3,7.37,17.04-.78,1.96-1.03,4.01-.73,5.92.29,1.84,1.08,3.53,2.34,5.01,1.37,1.6,3.26,2.88,5.46,3.7,6.8,2.52,10.26,10.08,7.74,16.88-1.96,5.29-6.98,8.56-12.31,8.56-1.52,0-3.06-.26-4.57-.82-6.39-2.37-12.03-6.27-16.29-11.27ZM395.01,357.25c-4.82,8.47-11.97,15.59-20.68,20.59-8.5,4.88-18.41,7.69-28.64,8.12-.19,0-.38.01-.57.01-6.99,0-12.81-5.52-13.11-12.57-.31-7.24,5.32-13.37,12.56-13.67,6.05-.26,11.82-1.87,16.69-4.66,4.65-2.67,8.43-6.39,10.92-10.78,2.45-4.31,3.65-9.27,3.48-14.34-.24-7.25,5.43-13.32,12.68-13.56.15,0,.3,0,.45,0,7.05,0,12.87,5.59,13.11,12.69.33,9.91-2.05,19.66-6.9,28.19ZM401.69,159.31c-1.89,5.4-4.97,10.41-8.91,14.5-4.06,4.2-9,7.39-14.31,9.25-1.43.5-2.9.74-4.34.74-5.42,0-10.5-3.39-12.39-8.8-2.39-6.84,1.21-14.33,8.06-16.73,1.46-.51,2.87-1.45,4.09-2.71,1.32-1.37,2.36-3.07,3.01-4.92.62-1.79.85-3.66.66-5.4-.16-1.49-.64-2.84-1.37-3.9-.6-.86-1.34-1.49-2.21-1.87-6.64-2.91-9.67-10.65-6.76-17.29,2.91-6.64,10.65-9.67,17.29-6.76,5.31,2.32,9.89,6.11,13.25,10.95,3.22,4.64,5.26,10.17,5.9,16.01.61,5.61-.07,11.46-1.98,16.91Z"/>
</svg>