<?xml version="1.0" encoding="UTF-8"?>
<svg id="Layer_1" data-name="Layer 1" xmlns="http://www.w3.org/2000/svg" viewBox="0 0 512 512">
  <defs>
    <style>
      .cls-1 {
        fill: #2355a3;
        stroke-width: 0px;
      }
    </style>
  </defs>
  <path class="cls-1" d="M450.56,0H142.51C108.63,0,81.07,27.56,81.07,61.44v230.39h-19.62c-33.88,0-61.44,27.56-61.44,61.44v97.28c0,33.88,27.56,61.44,61.44,61.44h97.28c33.88,0,61.44-27.56,61.44-61.44v-19.62h230.4c33.88,0,61.44-27.56,61.44-61.44V61.44C512,27.56,484.44,0,450.56,0ZM58.03,353.28c0-1.88,1.53-3.41,3.41-3.41h97.28c1.88,0,3.41,1.53,3.41,3.41v97.28c0,1.88-1.53,3.41-3.41,3.41H61.44c-1.88,0-3.41-1.53-3.41-3.41v-97.28ZM158.72,291.84h-19.62V61.44c0-1.88,1.53-3.41,3.41-3.41h308.05c1.88,0,3.41,1.53,3.41,3.41v308.05c0,1.88-1.53,3.41-3.41,3.41h-230.4v-19.62c0-33.88-27.56-61.44-61.44-61.44Z"/>
  <path class="cls-1" d="M241.49,303.79h64.85c16,0,29.02-13.02,29.02-29.02,0-14.37-10.49-26.33-24.22-28.62l63.86-63.86c2.29,13.73,14.25,24.22,28.62,24.22,16,0,29.02-13.02,29.02-29.02v-64.85c0-16-13.02-29.02-29.02-29.02h-64.85c-16,0-29.02,13.02-29.02,29.02,0,14.37,10.49,26.33,24.22,28.62l-63.86,63.86c-2.29-13.73-14.25-24.22-28.62-24.22-16,0-29.02,13.02-29.02,29.02v64.85c0,16,13.02,29.02,29.02,29.02Z"/>
</svg>