<svg width="26" height="26" viewBox="0 0 26 26" fill="none" xmlns="http://www.w3.org/2000/svg">
<path d="M13.0328 25.7521C6.02032 25.7521 0.335938 20.0678 0.335938 13.0553C0.335938 6.04277 6.02032 0.358398 13.0328 0.358398C20.0453 0.358398 25.7297 6.04277 25.7297 13.0553C25.7297 20.0678 20.0453 25.7521 13.0328 25.7521ZM13.0328 1.73964C6.81719 1.73964 1.71719 6.83964 1.71719 13.0553C1.71719 19.2709 6.81719 24.3709 13.0328 24.3709C19.2484 24.3709 24.3484 19.2709 24.3484 13.0553C24.3484 6.78652 19.2484 1.73964 13.0328 1.73964Z" fill="#402B57"/>
<path d="M9.09494 9.01807C9.30744 8.43369 9.57307 7.95556 9.94494 7.58368C10.3168 7.21181 10.7949 6.89307 11.3262 6.68057C11.8574 6.46807 12.4949 6.36182 13.1856 6.36182C13.7168 6.36182 14.2481 6.46807 14.7262 6.62744C15.2043 6.78682 15.6293 7.05243 16.0012 7.31806C16.3731 7.58368 16.6387 8.00869 16.8512 8.43369C17.0637 8.85869 17.1699 9.38994 17.1699 9.97432C17.1699 10.7181 17.0106 11.3024 16.6918 11.8337C16.3731 12.3649 15.9481 12.8431 15.4699 13.3212C15.0449 13.7462 14.7262 14.0649 14.5137 14.2774C14.2481 14.4899 14.0887 14.7556 13.9824 14.9681C13.8762 15.1806 13.7699 15.4462 13.7699 15.7649C13.7168 16.0837 13.7168 16.2962 13.7168 16.8806H12.4949C12.4949 16.2962 12.4949 16.0306 12.6012 15.6587C12.6543 15.2337 12.8137 14.9149 12.9731 14.5431C13.1324 14.2243 13.3981 13.9056 13.6637 13.5868C13.9824 13.2681 14.3012 12.9493 14.7262 12.5774C15.0981 12.2587 15.4168 11.8868 15.6293 11.4618C15.8949 11.0368 16.0012 10.5587 16.0012 10.0806C16.0012 9.70869 15.9481 9.33682 15.7887 9.01807C15.6293 8.69932 15.4168 8.43369 15.2043 8.16806C14.9918 7.90244 14.6731 7.74306 14.3012 7.63681C13.9824 7.53056 13.6106 7.42432 13.2387 7.42432C12.7074 7.42432 12.2293 7.53057 11.8574 7.68994C11.4324 7.84932 11.1137 8.11494 10.8481 8.43369C10.5824 8.75244 10.3699 9.12432 10.2637 9.54932C10.1574 9.97432 10.0512 10.3462 10.1043 10.8243H8.88244C8.82932 10.0806 8.88244 9.60244 9.09494 9.01807ZM12.2824 18.3149H13.7699V19.8024H12.2824V18.3149Z" fill="#402B57"/>
</svg>
