<?xml version="1.0" encoding="utf-8"?>
<!-- Generator: Adobe Illustrator 28.1.0, SVG Export Plug-In . SVG Version: 6.00 Build 0)  -->
<svg version="1.1" id="Layer_1" xmlns="http://www.w3.org/2000/svg" xmlns:xlink="http://www.w3.org/1999/xlink" x="0px" y="0px"
	 viewBox="0 0 512 512" style="enable-background:new 0 0 512 512;" xml:space="preserve">
<style type="text/css">
	.st0{fill:#3B3091;}
</style>
<g>
	<g>
		<path class="st0" d="M290.6,512h-69.4c-10.7,0-19.3-8.7-19.3-19.3v-40.1c0-0.9-0.7-1.3-1.3-1.6c-15.1-4.3-29.7-10.4-43.4-17.9
			c-0.6-0.3-1.4-0.4-2,0.1l-28.3,28.3c-7.5,7.5-19.8,7.5-27.4,0l-49.2-49.1c-7.5-7.5-7.5-19.8,0-27.4l28.3-28.3
			c0.6-0.6,0.4-1.4,0.1-2C71,341,65.1,326.4,60.8,311.3c-0.1-0.7-0.7-1.3-1.4-1.3H19.3C8.6,310,0,301.3,0,290.7v-69.4
			C0,210.6,8.7,202,19.3,202h40.1c0.9,0,1.3-0.7,1.6-1.3c4.3-15.1,10.2-29.7,17.9-43.4c0.3-0.6,0.4-1.4-0.1-2l-28.4-28.4
			c-7.5-7.5-7.5-19.8,0-27.3l49.2-49.1c7.5-7.5,19.8-7.5,27.4,0l28.3,28.3c0.6,0.6,1.4,0.4,2,0.1c13.7-7.7,28.3-13.8,43.4-18.1
			c0.6-0.1,1.3-0.7,1.3-1.6v-40c0-10.7,8.7-19.3,19.3-19.3h69.4C301.3,0,310,8.7,310,19.3v40.1c0,0.9,0.7,1.3,1.3,1.6
			c15.1,4.3,29.7,10.4,43.4,17.9c0.6,0.3,1.4,0.4,2-0.1L385,50.5c7.4-7.4,20.1-7.3,27.4,0l49.1,49.1c7.5,7.5,7.5,19.8,0,27.4
			l-28.3,28.3c-0.4,0.4-0.6,1.3-0.1,2c7.7,13.8,13.8,28.4,18.1,43.4c0.1,0.7,0.7,1.3,1.6,1.3h40.1c10.7,0,19.3,8.7,19.3,19.3v69.4
			c0,10.7-8.7,19.3-19.3,19.3h-40.1c-0.7,0-1.3,0.7-1.4,1.3c-4.3,15.1-10.2,29.6-17.9,43.4c-0.3,0.6-0.4,1.4,0.1,2l28.3,28.3
			c7.5,7.5,7.5,19.9,0,27.4l-49.4,49.1c-7.5,7.5-19.8,7.5-27.3,0l-28.3-28.3c-0.6-0.6-1.4-0.4-2-0.1c-13.8,7.7-28.3,13.8-43.4,18.1
			c-0.7,0.1-1.3,0.7-1.3,1.4v40.1C310,503.3,301.3,512,290.6,512z M156.2,415c3.3,0,6.5,0.9,9.7,2.6c12.5,7,25.7,12.5,39.5,16.4
			c8.4,2.4,14.2,10.1,14.2,18.6v40.1c0,0.9,0.7,1.6,1.6,1.6h69.4c0.9,0,1.6-0.7,1.6-1.6v-40.1c0-8.7,5.8-16.4,14.2-18.6
			c13.8-3.8,27-9.4,39.5-16.4c7.5-4.3,17.2-3,23.3,3.1l28.3,28.3c0.6,0.6,1.6,0.6,2.1,0l49.1-49.1c0.6-0.6,0.6-1.6,0-2.1l-28.3-28.3
			c-6.1-6.1-7.4-15.6-3.1-23.3c7-12.5,12.5-25.7,16.4-39.4c2.4-8.4,10.1-14.4,18.6-14.4h40.1c0.9,0,1.6-0.7,1.6-1.6v-69.4
			c0-0.9-0.7-1.6-1.6-1.6h-40.1c-8.7,0-16.4-5.8-18.6-14.4c-3.8-13.7-9.4-27-16.4-39.5c-4.3-7.5-3-17.2,3.1-23.3l28.3-28.3
			c0.6-0.6,0.6-1.6,0-2.1l-49.1-49.1c-0.6-0.6-1.7-0.4-2.1,0l-28.3,28.3c-6.1,6.1-15.8,7.4-23.3,3.1c-12.4-7-25.7-12.5-39.5-16.4
			c-8.4-2.4-14.2-10.1-14.2-18.6V19.3c0-0.9-0.7-1.6-1.6-1.6h-69.4c-0.9,0-1.6,0.7-1.6,1.6v40.1c0,8.7-5.7,16.2-14.2,18.6
			c-13.8,3.8-27,9.4-39.5,16.4c-7.7,4.3-17.2,3-23.3-3.1l-28.4-28.2c-0.6-0.6-1.6-0.6-2.1,0L63,112c-0.6,0.6-0.6,1.6,0,2.1
			l28.4,28.4c6.1,6.1,7.4,15.8,3,23.3c-7,12.4-12.5,25.7-16.4,39.4c-2.4,8.5-10,14.4-18.6,14.4H19.3c-0.9,0-1.6,0.7-1.6,1.6v69.4
			c0,0.9,0.7,1.6,1.6,1.6h40.1c8.5,0,16.2,5.8,18.6,14.4c3.8,13.8,9.4,27,16.4,39.5c4.3,7.7,3.1,17.1-3.1,23.3L63,397.7
			c-0.6,0.6-0.6,1.6,0,2.1l49,49.2c0.6,0.6,1.6,0.6,2.1,0l28.3-28.3C146.1,416.9,151.1,415,156.2,415z M255.9,366.1
			c-60.7,0-110.1-49.4-110.1-110.1s49.4-110.1,110.1-110.1S366,195.3,366,256S316.7,366.1,255.9,366.1z M255.9,163.8
			c-50.8,0-92.2,41.4-92.2,92.2s41.4,92.2,92.2,92.2s92.2-41.4,92.2-92.2S306.7,163.8,255.9,163.8z"/>
	</g>
</g>
</svg>
