<?xml version="1.0" encoding="utf-8"?>
<!-- Generator: Adobe Illustrator 28.1.0, SVG Export Plug-In . SVG Version: 6.00 Build 0)  -->
<svg version="1.1" id="Layer_1" xmlns="http://www.w3.org/2000/svg" xmlns:xlink="http://www.w3.org/1999/xlink" x="0px" y="0px"
	 viewBox="0 0 512 512" style="enable-background:new 0 0 512 512;" xml:space="preserve">
<style type="text/css">
	.st0{fill:#0B4A99;}
</style>
<g>
	<path class="st0" d="M488.4,198.3h-37c-4.1-13.6-9.6-26.8-16.5-39.5l26-26c9.2-9.3,9.2-24.4,0-33.6L412.7,51
		c-4.3-4.3-10.4-6.8-16.7-6.8c0,0,0,0-0.1,0c-6.4,0-12.4,2.4-16.8,6.8l-26,26c-12.8-6.8-26-12.3-39.5-16.3v-37
		c0-13-10.6-23.7-23.7-23.8h-68.1c-13.1,0-23.7,10.6-23.7,23.7v36.9c-13.7,4.1-26.9,9.6-39.5,16.5l-26-26c-9.3-9.2-24.4-9.2-33.6,0
		L50.8,99.2c-9.2,9.2-9.2,24.3,0,33.5l26.1,26.1c-6.7,12.2-12.1,25.4-16.3,39.5h-37C10.6,198.3,0,208.9,0,222v68.1
		c0,13.1,10.6,23.7,23.7,23.7h36.8c4.2,14,9.6,27.3,16.3,39.5l-26,26c-9.2,9.3-9.2,24.4,0,33.6L99,461.1c9.3,9.2,24.4,9.2,33.6,0
		l26-26c12.8,6.8,26,12.3,39.5,16.3v37c0,13.1,10.6,23.7,23.7,23.7h68.1c13,0,23.7-10.6,24-23.7v-36.8c13.5-4,26.8-9.5,39.5-16.5
		l26,26c9.2,9.2,24.3,9.2,33.5,0l48.5-48.2c4.5-4.5,6.9-10.4,6.9-16.8c0-6.4-2.5-12.3-6.9-16.8l-26-26c6.7-12.3,12.2-25.6,16.3-39.5
		h36.8c13.1,0,23.7-10.6,23.7-23.7V222C512,208.9,501.4,198.3,488.4,198.3z M425.7,304.6c-3.7,13-9,25.7-15.7,37.6
		c-5.2,9.3-3.6,21.1,3.8,28.5l25.4,25.4l-43.5,43.5l-25.4-25.4c-7.6-7.6-19.3-9.1-28.5-3.8c-12.3,6.9-25,12.2-37.6,15.6
		c-10.3,2.7-17.5,12.1-17.5,22.8v36.2h-61.7V449c0-10.5-7.1-19.9-17.4-22.8c-13.1-3.7-25.8-9-37.8-15.7c-3.9-2.1-7.8-3.1-11.7-3.1
		c-6.5,0-12.5,2.5-16.9,7l-25.4,25.4l-43.4-43.6l25.4-25.4c7.6-7.6,9.1-19.1,3.8-28.5c-6.9-12.3-12.2-25-15.7-37.7
		c-2.9-10.4-12.3-17.6-22.8-17.6H26.8v-61.7H63c10.5,0,19.9-7.2,22.8-17.6c3.8-13.2,9-25.9,15.6-37.6c5.4-9.3,3.9-21-3.7-28.6
		l-25.5-25.5l43.5-43.4l25.5,25.4c7.5,7.5,19.2,9,28.5,3.8c12.3-6.9,25-12.2,37.7-15.7c10.4-2.9,17.4-12.1,17.4-22.8V27h61.7v36.3
		c0,10.5,7.1,19.9,17.4,22.8c13.3,3.7,25.9,9,37.7,15.6c9.3,5.3,21,3.8,28.6-3.8l25.4-25.4l43.5,43.5l-25.4,25.4
		c-7.6,7.6-9.1,19.3-3.8,28.5c6.8,12.2,12.1,24.9,15.6,37.6c2.7,10.4,12.1,17.7,22.8,17.7h36.2V287h-36.2
		C438,287,428.7,294.2,425.7,304.6z"/>
	<path class="st0" d="M255.8,143.3C193.6,143.3,143,193.9,143,256s50.6,112.8,112.8,112.8c62.2,0,112.8-50.6,112.8-112.8
		S318,143.3,255.8,143.3z M341.5,256c0,47.3-38.5,85.7-85.7,85.7c-47.3,0-85.7-38.5-85.7-85.7s38.5-85.7,85.7-85.7
		C303.1,170.3,341.5,208.8,341.5,256z"/>
</g>
</svg>
