<?xml version="1.0" encoding="UTF-8"?>
<svg id="Layer_1" xmlns="http://www.w3.org/2000/svg" version="1.1" viewBox="0 0 36 36">
  <!-- Generator: Adobe Illustrator 29.1.0, SVG Export Plug-In . SVG Version: 2.1.0 Build 142)  -->
  <defs>
    <style>
      .st0 {
        fill: #7ab5f4;
      }

      .st1 {
        fill: #0b4a99;
      }

      .st2 {
        fill: none;
        stroke: #0b4a99;
        stroke-miterlimit: 10;
        stroke-width: 1.2px;
      }
    </style>
  </defs>
  <polyline class="st0" points=".8 34.2 2.9 35 8.5 35 12.8 33.5 15.9 34.2 20.2 32.9 23.3 29.4 26.2 11.6 27.8 13.1 29.2 26.7 30.7 31 32.3 32.6 35.8 33.6 35.8 35.3 .8 35.3"/>
  <polygon class="st1" points="35.6 35.6 0 35.6 0 1 1.2 1 1.2 34.4 35.6 34.4 35.6 35.6"/>
  <polyline class="st2" points=".8 34.2 2.9 35 8.5 35 12.8 33.5 15.9 34.2 20.2 32.9 23.3 29.4 26.2 11.6 27.8 13.1 29.2 26.7 30.7 31 32.3 32.6 35.6 34.4"/>
  <path class="st2" d="M.8,34.9h4.9l1.2-.3,1.5-2.2,1.4-3.2,1.2-5.6,1.8-16.8,1.5,5.3.7,10.2.8,5.1,1.5,3.3s1,1.2,3.3,1.7c0,0,3.1,1,5.6-.8l1.5,1,1.6,1.3,1.6.5h3.1c0,0,1.1.3,1.1.3"/>
</svg>