<?xml version="1.0" encoding="UTF-8"?>
<svg id="Layer_1" xmlns="http://www.w3.org/2000/svg" version="1.1" viewBox="0 0 36 36">
  <!-- Generator: Adobe Illustrator 29.1.0, SVG Export Plug-In . SVG Version: 2.1.0 Build 142)  -->
  <defs>
    <style>
      .st0 {
        fill: #7ab5f4;
      }

      .st1 {
        stroke-linecap: round;
        stroke-width: 1.3px;
      }

      .st1, .st2 {
        fill: none;
        stroke: #0b4a99;
        stroke-miterlimit: 10;
      }
    </style>
  </defs>
  <rect class="st0" x="8.4" y="4.7" width="4.2" height="2.1"/>
  <rect class="st0" x="11.4" y="10.7" width="7.9" height="2.1"/>
  <rect class="st0" x="12.4" y="16.9" width="9.7" height="2.1"/>
  <rect class="st0" x="5.5" y="23.1" width="16.8" height="2.1"/>
  <rect class="st0" x="5.5" y="29.1" width="12.7" height="2.1"/>
  <g>
    <line class="st1" x1="3.3" y1=".9" x2="3.3" y2="35.1"/>
    <g>
      <line class="st1" x1="2.6" y1="1" x2="1" y2="1"/>
      <line class="st1" x1="2.6" y1="5.9" x2="1" y2="5.9"/>
      <line class="st1" x1="2.6" y1="10.7" x2="1" y2="10.7"/>
      <line class="st1" x1="2.6" y1="15.6" x2="1" y2="15.6"/>
      <line class="st1" x1="2.6" y1="20.4" x2="1" y2="20.4"/>
      <line class="st1" x1="2.6" y1="25.3" x2="1" y2="25.3"/>
      <line class="st1" x1="2.6" y1="30.1" x2="1" y2="30.1"/>
      <line class="st1" x1="2.6" y1="35" x2="1" y2="35"/>
      <line class="st1" x1="2.6" y1="3.5" x2="1.8" y2="3.5"/>
      <line class="st1" x1="2.6" y1="8.3" x2="1.8" y2="8.3"/>
      <line class="st1" x1="2.6" y1="13.2" x2="1.8" y2="13.2"/>
      <line class="st1" x1="2.6" y1="18" x2="1.8" y2="18"/>
      <line class="st1" x1="2.6" y1="22.8" x2="1.8" y2="22.8"/>
      <line class="st1" x1="2.6" y1="27.7" x2="1.8" y2="27.7"/>
      <line class="st1" x1="2.6" y1="32.5" x2="1.8" y2="32.5"/>
    </g>
  </g>
  <g>
    <g>
      <rect class="st2" x="5.4" y="4.5" width="1.2" height="2.3"/>
      <rect class="st2" x="8.4" y="4.5" width="4.2" height="2.3"/>
      <rect class="st2" x="14.5" y="4.5" width="2.9" height="2.3"/>
    </g>
    <g>
      <rect class="st2" x="5.5" y="29.2" width="12.7" height="2.3"/>
      <rect class="st2" x="20.2" y="29.2" width="3" height="2.3"/>
      <rect class="st2" x="25.2" y="29.2" width="6.8" height="2.3"/>
    </g>
    <g>
      <rect class="st2" x="5.4" y="10.7" width="4.1" height="2.3"/>
      <rect class="st2" x="11.4" y="10.7" width="8.2" height="2.3"/>
      <rect class="st2" x="21.4" y="10.7" width="3.8" height="2.3"/>
    </g>
    <g>
      <rect class="st2" x="5.4" y="16.9" width="5" height="2.3"/>
      <rect class="st2" x="12.3" y="16.9" width="9.8" height="2.3"/>
      <rect class="st2" x="24.2" y="16.9" width="4.6" height="2.3"/>
    </g>
    <g>
      <rect class="st2" x="24.6" y="23" width="2.3" height="2.3"/>
      <rect class="st2" x="5.5" y="23" width="16.9" height="2.3"/>
      <rect class="st2" x="29" y="23" width="6.5" height="2.3"/>
    </g>
  </g>
</svg>