<?xml version="1.0" encoding="utf-8"?>
<!-- Generator: Adobe Illustrator 28.1.0, SVG Export Plug-In . SVG Version: 6.00 Build 0)  -->
<svg version="1.1" id="Layer_1" xmlns="http://www.w3.org/2000/svg" xmlns:xlink="http://www.w3.org/1999/xlink" x="0px" y="0px"
	 viewBox="0 0 15.9 15.9" style="enable-background:new 0 0 15.9 15.9;" xml:space="preserve">
<style type="text/css">
	.st0{fill:#3B3091;}
</style>
<path class="st0" d="M8.4,1.1L15,7.6c0.3,0.3,0.3,0.7,0,1l-0.6,0.6l-6-5.9C8.2,3,7.7,3,7.4,3.3l-6,5.9L0.9,8.6c-0.3-0.3-0.3-0.7,0-1
	L7.5,1C7.7,0.8,8.2,0.8,8.4,1.1L8.4,1.1z"/>
<path class="st0" d="M8.4,6.8l6.6,6.6c0.3,0.3,0.3,0.7,0,1L14.4,15l-6-6c-0.3-0.3-0.7-0.3-1,0l-6,5.9l-0.6-0.6c-0.3-0.3-0.3-0.7,0-1
	l6.6-6.6C7.7,6.6,8.2,6.6,8.4,6.8L8.4,6.8z"/>
</svg>
