<?xml version="1.0" standalone="no"?>
<!DOCTYPE svg PUBLIC "-//W3C//DTD SVG 20010904//EN"
 "http://www.w3.org/TR/2001/REC-SVG-20010904/DTD/svg10.dtd">
<svg version="1.0" xmlns="http://www.w3.org/2000/svg"
 width="387.000000pt" height="345.000000pt" viewBox="0 0 387.000000 345.000000"
 preserveAspectRatio="xMidYMid meet">

<g transform="translate(0.000000,345.000000) scale(0.100000,-0.100000)"
fill="#000000" stroke="none">
<path d="M86 3403 c15 -21 231 -303 479 -628 249 -324 558 -729 688 -899 205
-268 235 -312 223 -325 -7 -9 -298 -342 -647 -740 -349 -398 -649 -741 -667
-763 l-34 -38 291 0 290 0 522 595 c287 327 525 595 529 595 3 0 211 -268 461
-594 l454 -595 583 0 c320 -1 582 1 582 4 0 3 -76 105 -168 227 -1005 1329
-1313 1741 -1310 1748 2 5 282 327 623 716 341 389 624 713 628 720 7 12 -41
14 -280 14 l-288 0 -480 -548 -480 -548 -414 548 -414 548 -600 0 -599 0 28
-37z m2029 -1659 c567 -751 1034 -1372 1038 -1380 7 -12 -17 -14 -151 -14
l-159 0 -1045 1368 c-574 752 -1047 1373 -1052 1380 -6 9 30 12 166 12 l173
-1 1030 -1365z"/>
</g>
</svg>
