<svg width="190" height="185" viewBox="0 0 190 185" fill="none" xmlns="http://www.w3.org/2000/svg">
<path d="M83.9664 144.016C119.339 144.016 148.015 115.341 148.015 79.9679C148.015 44.5949 119.339 15.9194 83.9664 15.9194C48.5934 15.9194 19.918 44.5949 19.918 79.9679C19.918 115.341 48.5934 144.016 83.9664 144.016Z" fill="#B6B6B6"/>
<path fill-rule="evenodd" clip-rule="evenodd" d="M15.2817 34.9371L54.2035 20.7707C61.3227 18.1796 69.2028 21.8477 71.7968 28.9747L86.3488 68.9558C88.94 76.075 85.2718 83.9551 78.1449 86.5491L39.2231 100.716C32.1039 103.307 24.2237 99.6386 21.6297 92.5116L7.07778 52.5305C4.48661 45.4113 8.16252 37.5283 15.2817 34.9371Z" fill="#00B3E3"/>
<path d="M32.3757 45.636L36.5885 57.2105L25.0452 61.4119L20.8324 49.8374L32.3757 45.636ZM31.4621 47.6092L22.8085 50.7589L25.9666 59.4358L34.6202 56.2862L31.4621 47.6092Z" fill="black"/>
<path d="M30.441 49.7977L32.4311 55.2656L26.9788 57.2501L24.9886 51.7822L30.441 49.7977ZM29.5273 51.771L26.9647 52.7037L27.9003 55.2741L30.4628 54.3414L29.5273 51.771Z" fill="black"/>
<path d="M60.6336 34.9895L64.8463 46.564L53.303 50.7654L49.0902 39.1909L60.6336 34.9895ZM59.7199 36.9627L51.0663 40.1124L54.2244 48.7894L62.8781 45.6397L59.7199 36.9627Z" fill="black"/>
<path d="M58.6988 39.1508L60.6889 44.6187L55.2366 46.6032L53.2465 41.1353L58.6988 39.1508ZM57.7851 41.124L55.2225 42.0567L56.1581 44.6271L58.7207 43.6944L57.7851 41.124Z" fill="black"/>
<path d="M70.0476 60.864L74.2604 72.4385L62.717 76.6399L58.5043 65.0654L70.0476 60.864ZM69.134 62.8372L60.4803 65.9869L63.6385 74.6639L72.2921 71.5142L69.134 62.8372Z" fill="black"/>
<path d="M68.1207 65.0331L70.1108 70.501L64.6585 72.4855L62.6683 67.0176L68.1207 65.0331ZM67.2042 66.9985L64.6416 67.9312L65.5771 70.5016L68.1397 69.5689L67.2042 66.9985Z" fill="black"/>
<path d="M35.9584 51.4327L40.4605 49.7941L39.936 48.3531L35.434 49.9917L35.9584 51.4327Z" fill="black"/>
<path d="M38.9636 49.5248L40.418 53.5206L38.7355 54.1329L39.209 55.4337L37.768 55.9582L37.0309 53.933L36.7701 53.2164L38.4447 52.6069L37.5149 50.0521L38.9636 49.5248Z" fill="black"/>
<path d="M37.0785 44.3379L38.0594 47.0329L39.5004 46.5084L38.5195 43.8134L37.0785 44.3379Z" fill="black"/>
<path d="M34.5824 47.1812L34.9424 48.1704L36.3834 47.6459L36.0234 46.6567L34.5824 47.1812Z" fill="black"/>
<path d="M42.8827 46.0883L43.3505 47.3735L49.6129 45.0942L51.7193 50.8814L50.2705 51.4088L48.6914 47.0703L42.4368 49.3467L41.4418 46.6128L42.8827 46.0883Z" fill="black"/>
<path d="M49.981 48.3329L50.5083 49.7817L48.1015 50.6577L48.5976 52.0208L47.1566 52.5452L46.1332 49.7334L49.981 48.3329Z" fill="black"/>
<path d="M44.0083 54.2547L44.7823 56.3811L43.3413 56.9056L43.0947 56.2279L41.607 56.7694L42.1173 58.1714L36.0262 60.3884L35.4989 58.9396L40.1412 57.25L39.6309 55.848L44.0083 54.2547Z" fill="black"/>
<path d="M42.778 55.5205L41.9531 53.2538L40.5121 53.7783L41.3371 56.0449L42.778 55.5205Z" fill="black"/>
<path d="M44.4334 50.3487L45.4909 53.254L44.0499 53.7784L43.5198 52.3219L42.1878 52.8067L41.6605 51.3579L44.4334 50.3487Z" fill="black"/>
<path d="M49.1797 54.2416L49.707 55.6904L48.4296 56.1553L49.0476 57.8534L46.3137 58.8484L45.7892 57.4075L47.0744 56.9397L46.4535 55.2339L49.1797 54.2416Z" fill="black"/>
<path d="M42.3363 58.771L43.1471 60.9987L44.5881 60.4742L43.7773 58.2465L42.3363 58.771Z" fill="black"/>
<path d="M33.5906 59.6338L34.118 61.0826L27.9335 63.3336L28.5401 65.0004L30.1836 64.4022L31.3715 67.6658L39.0125 64.8847L39.5398 66.3335L30.4578 69.6391L29.27 66.3755L27.6187 66.9765L25.9574 62.4121L33.5906 59.6338Z" fill="black"/>
<path d="M57.909 51.9996L58.4363 53.4484L64.6208 51.1974L65.4344 53.4328L63.7832 54.0339L65.1921 57.905L57.5589 60.6833L58.0862 62.1321L67.1682 58.8265L65.7592 54.9553L67.4027 54.3571L65.5345 49.2242L57.909 51.9996Z" fill="black"/>
<path d="M48.0585 60.2949L48.4753 61.4399L50.1655 60.8247L49.7487 59.6797L51.1897 59.1552L52.1338 61.749L47.5616 63.4131L46.6176 60.8193L48.0585 60.2949Z" fill="black"/>
<path d="M55.0185 55.4508L55.5664 56.8833L51.2399 58.5197L50.6921 57.0872L55.0185 55.4508Z" fill="black"/>
<path d="M53.8577 56.7464L53.0781 54.6044L51.6371 55.1289L52.4167 57.2709L53.8577 56.7464Z" fill="black"/>
<path d="M41.5551 73.7153L42.329 75.8417L43.77 75.3173L43.5233 74.6396L45.011 74.0981L45.5213 75.5002L51.6201 73.2804L51.0928 71.8316L46.4428 73.5241L45.9325 72.1221L41.5551 73.7153Z" fill="black"/>
<path d="M37.5863 77.0308L38.1136 78.4795L39.3988 78.0118L40.0168 79.7098L42.743 78.7175L42.2185 77.2765L40.9333 77.7443L40.3125 76.0385L37.5863 77.0308Z" fill="black"/>
<path d="M45.7382 76.0996L46.549 78.3272L45.108 78.8517L44.2972 76.624L45.7382 76.0996Z" fill="black"/>
<path d="M52.991 71.1397L53.5183 72.5885L59.7028 70.3375L60.3095 72.0044L58.666 72.6026L59.8539 75.8662L52.2128 78.6473L52.7401 80.096L61.8222 76.7905L60.6343 73.5269L62.2856 72.9258L60.6243 68.3615L52.991 71.1397Z" fill="black"/>
<path d="M42.3347 80.9468L42.7514 82.0918L41.0612 82.7069L40.6445 81.562L39.2035 82.0864L40.1475 84.6802L44.7197 83.016L43.7757 80.4223L42.3347 80.9468Z" fill="black"/>
<path d="M62.3115 55.5216L62.8544 56.9647L58.5279 58.6011L57.9851 57.158L62.3115 55.5216Z" fill="black"/>
<path d="M61.1506 56.828L60.371 54.686L58.9301 55.2104L59.7097 57.3524L61.1506 56.828Z" fill="black"/>
<path d="M29.6956 72.4473L56.9573 62.5249L56.4299 61.0761L29.1683 70.9985L29.6956 72.4473Z" fill="black"/>
<path d="M45.0563 47.111L48.0472 46.0223L46.5645 41.9487L43.5735 43.0373L45.0563 47.111Z" fill="black"/>
<path fill-rule="evenodd" clip-rule="evenodd" d="M32.9445 67.8956L32.1564 65.7302L33.7999 65.132L33.179 63.4262L41.1394 60.5289L42.2621 63.6133L45.4166 62.4652L45.9723 63.9918L41.0808 65.7722L40.0233 62.8669L36.9077 64.0009L37.6958 66.1662L32.9445 67.8956Z" fill="black"/>
<path fill-rule="evenodd" clip-rule="evenodd" d="M58.694 76.9678L57.9059 74.8024L56.2546 75.4034L55.6309 73.6898L47.6783 76.5844L48.8038 79.6766L45.6415 80.8276L46.1971 82.3542L51.0886 80.5739L50.0312 77.6686L53.1468 76.5346L53.9349 78.6999L58.694 76.9678Z" fill="black"/>
<path d="M35.0532 86.4047L39.6721 84.7235L34.9292 71.6925L30.3103 73.3736L35.0532 86.4047Z" fill="black"/>
<path d="M36.6158 72.9261L58.0668 65.1185L57.5735 63.7632L36.1225 71.5708L36.6158 72.9261Z" fill="black"/>
<path d="M46.199 72.211L58.9652 67.5645L58.4719 66.2092L45.7057 70.8557L46.199 72.211Z" fill="black"/>
<path d="M64.1221 36.2396C63.6554 36.2418 63.2148 35.9523 63.0447 35.485L61.4401 31.0764L56.424 32.9021C55.832 33.1176 55.1733 32.8104 54.9579 32.2184C54.7424 31.6265 55.0496 30.9678 55.6415 30.7523L61.7326 28.5354C62.0208 28.4305 62.3359 28.4481 62.6093 28.5691C62.8855 28.6979 63.0938 28.9308 63.1987 29.219L65.1945 34.7025C65.41 35.2945 65.1028 35.9532 64.5108 36.1686C64.3784 36.2168 64.2531 36.236 64.1221 36.2396Z" fill="black"/>
<path d="M17.199 53.3198C16.7323 53.3221 16.2918 53.0325 16.1217 52.5652L14.1258 47.0817C14.021 46.7935 14.0386 46.4784 14.1596 46.205C14.2884 45.9288 14.5213 45.7205 14.8095 45.6156L20.9005 43.3987C21.4925 43.1832 22.1512 43.4904 22.3666 44.0823C22.5821 44.6743 22.2749 45.333 21.683 45.5484L16.6668 47.3742L18.2714 51.7827C18.4869 52.3747 18.1797 53.0334 17.5878 53.2489C17.4554 53.2971 17.33 53.3162 17.199 53.3198Z" fill="black"/>
<path d="M72.5467 78.3471C72.08 78.3494 71.6394 78.0599 71.4693 77.5925C71.2539 77.0006 71.561 76.3419 72.153 76.1264L77.1769 74.2979L75.5723 69.8893C75.3569 69.2973 75.664 68.6386 76.256 68.4232C76.8479 68.2077 77.5066 68.5149 77.7221 69.1068L79.7179 74.5903C79.9334 75.1823 79.6262 75.841 79.0343 76.0564L72.9432 78.2734C72.8137 78.3294 72.6805 78.3513 72.5467 78.3471Z" fill="black"/>
<path d="M31.7186 93.2074C31.5507 93.2067 31.3871 93.1693 31.2384 93.0999C30.9622 92.9711 30.7539 92.7382 30.649 92.45L28.6532 86.9665C28.4377 86.3745 28.7449 85.7158 29.3368 85.5004C29.9288 85.2849 30.5875 85.5921 30.803 86.184L32.4076 90.5926L37.4237 88.7669C38.0157 88.5514 38.6744 88.8586 38.8898 89.4506C39.1053 90.0425 38.7981 90.7012 38.2062 90.9167L32.1151 93.1336C31.9827 93.1818 31.8524 93.2116 31.7186 93.2074Z" fill="black"/>
<path fill-rule="evenodd" clip-rule="evenodd" d="M58.5669 51.7812L101.336 36.2144C108.456 33.6232 116.336 37.2913 118.93 44.4183L155.759 145.606C158.35 152.725 154.682 160.605 147.555 163.199L104.785 178.766C97.6663 181.357 89.7861 177.689 87.1921 170.562L50.3629 69.3746C47.7689 62.2476 51.4399 54.3752 58.5669 51.7812Z" fill="#402B57"/>
<path fill-rule="evenodd" clip-rule="evenodd" d="M70.7581 47.3437L113.528 31.7769C120.647 29.1857 128.527 32.8538 131.121 39.9808L167.95 141.168C170.541 148.287 166.873 156.167 159.746 158.761L116.977 174.328C109.858 176.919 101.977 173.251 99.3834 166.124L62.5542 64.9371C59.9602 57.8101 63.6312 49.9377 70.7581 47.3437Z" fill="#42D3F0"/>
<path fill-rule="evenodd" clip-rule="evenodd" d="M73.5669 49.0815L112.489 34.9151C119.608 32.324 127.488 35.9921 130.082 43.1191L165.358 140.038C167.949 147.157 164.281 155.037 157.154 157.631L118.232 171.798C111.113 174.389 103.233 170.721 100.639 163.594L65.3629 66.6749C62.7689 59.5479 66.4399 51.6755 73.5669 49.0815Z" fill="white"/>
<path d="M103.711 180.295C103.244 180.297 102.804 180.008 102.634 179.541C102.418 178.949 102.725 178.29 103.317 178.074L162.236 156.806C162.828 156.591 163.486 156.898 163.702 157.49C163.917 158.082 163.61 158.741 163.018 158.956L104.1 180.224C103.975 180.27 103.842 180.292 103.711 180.295Z" fill="#050209"/>
<path d="M83.6837 52.97C83.217 52.9722 82.7764 52.6827 82.6063 52.2154C82.3909 51.6234 82.698 50.9647 83.29 50.7493L106.174 42.4201C106.766 42.2047 107.425 42.5118 107.64 43.1038C107.856 43.6957 107.549 44.3544 106.957 44.5699L84.0724 52.899C83.94 52.9472 83.8069 52.9692 83.6837 52.97Z" fill="#81AED0"/>
<path fill-rule="evenodd" clip-rule="evenodd" d="M127.523 45.7439L124.993 47.8819C122.717 49.7954 119.332 49.5103 117.411 47.2369C117.378 47.1958 117.346 47.1548 117.313 47.1137L115.26 44.5266C114.364 43.3974 113.092 42.6166 111.676 42.338L108.433 41.6924C105.522 41.1112 103.628 38.2812 104.209 35.3704C104.215 35.3152 104.232 35.2649 104.247 35.2068L104.99 31.9901C105.316 30.5836 105.131 29.1071 104.47 27.822L102.952 24.8899C101.596 22.2524 102.629 19.0093 105.264 17.6446C105.308 17.6198 105.36 17.5922 105.406 17.5752L108.396 16.1431C109.695 15.5202 110.736 14.4534 111.332 13.1339L112.686 10.1181C113.905 7.40761 117.089 6.1957 119.8 7.41437C119.85 7.43135 119.895 7.45896 119.938 7.47877L122.914 8.91831C124.211 9.54891 125.694 9.69719 127.097 9.33632L130.308 8.51177C133.188 7.77229 136.112 9.50433 136.856 12.3736C136.868 12.431 136.885 12.4777 136.894 12.5273L137.617 15.7485C137.936 17.1584 138.744 18.4081 139.897 19.276L142.535 21.2623C144.904 23.0462 145.382 26.4184 143.598 28.7877C143.562 28.8359 143.532 28.8734 143.496 28.9216L141.427 31.5006C140.522 32.6241 140.049 34.0398 140.089 35.481L140.179 38.7824C140.262 41.751 137.918 44.2275 134.946 44.3034C134.894 44.3049 134.841 44.3063 134.789 44.3077L131.477 44.296C130.024 44.3042 128.63 44.8116 127.523 45.7439Z" fill="#402B57"/>
<path d="M122.913 32.7435C122.753 32.74 122.584 32.7131 122.433 32.636L117.386 30.2828C116.813 30.0153 116.566 29.3376 116.833 28.7639C117.101 28.1902 117.779 27.9436 118.352 28.2111L122.365 30.0759L126.903 20.3443C127.171 19.7707 127.848 19.524 128.422 19.7915C128.996 20.059 129.242 20.7367 128.975 21.3104L123.949 32.0753C123.761 32.5053 123.346 32.7447 122.913 32.7435Z" fill="#EFEFEF"/>
<g clip-path="url(#clip0_96_6215)">
<path d="M87.4388 88.4765L89.8128 95.2672C89.8758 95.4473 90.0077 95.595 90.1796 95.6778C90.3514 95.7607 90.5492 95.7718 90.7293 95.7089C90.9094 95.6459 91.0571 95.514 91.1399 95.3421C91.2227 95.1702 91.2339 94.9725 91.1709 94.7924L89.0343 88.6808L95.1459 86.5441C95.326 86.4812 95.4738 86.3492 95.5566 86.1774C95.6394 86.0055 95.6506 85.8077 95.5876 85.6276C95.5246 85.4475 95.3927 85.2998 95.2208 85.217C95.049 85.1342 94.8512 85.123 94.6711 85.186L87.8804 87.56C87.7003 87.623 87.5526 87.7549 87.4698 87.9268C87.387 88.0987 87.3758 88.2964 87.4388 88.4765ZM138.187 105.028L131.396 107.402C131.216 107.465 131.019 107.454 130.847 107.371C130.675 107.288 130.543 107.14 130.48 106.96C130.417 106.78 130.428 106.582 130.511 106.41C130.594 106.239 130.741 106.107 130.922 106.044L137.033 103.907L134.897 97.7955C134.834 97.6154 134.845 97.4176 134.928 97.2458C135.01 97.0739 135.158 96.942 135.338 96.879C135.518 96.816 135.716 96.8272 135.888 96.91C136.06 96.9929 136.192 97.1406 136.255 97.3207L138.629 104.111C138.692 104.291 138.681 104.489 138.598 104.661C138.515 104.833 138.367 104.965 138.187 105.028ZM92.1868 102.058L93.1364 104.774C93.1994 104.954 93.3313 105.102 93.5032 105.185C93.6751 105.268 93.8728 105.279 94.0529 105.216L96.7692 104.266L100.093 113.773C100.156 113.953 100.288 114.101 100.46 114.184C100.631 114.267 100.829 114.278 101.009 114.215L103.726 113.265C103.906 113.202 104.053 113.07 104.136 112.898C104.219 112.727 104.23 112.529 104.167 112.349L100.844 102.842L102.881 102.13L106.204 111.637C106.267 111.817 106.399 111.964 106.571 112.047C106.743 112.13 106.941 112.141 107.121 112.078C107.301 112.015 107.449 111.883 107.532 111.711C107.614 111.54 107.626 111.342 107.563 111.162L104.239 101.655L105.597 101.18L108.921 110.687C108.984 110.867 109.116 111.015 109.288 111.098C109.459 111.18 109.657 111.192 109.837 111.129C110.017 111.066 110.165 110.934 110.248 110.762C110.331 110.59 110.342 110.392 110.279 110.212L106.955 100.705L108.992 99.993L112.316 109.5C112.379 109.68 112.511 109.828 112.683 109.911C112.855 109.993 113.052 110.005 113.233 109.942L113.912 109.704C114.092 109.641 114.239 109.509 114.322 109.337C114.405 109.166 114.416 108.968 114.353 108.788L111.03 99.2807L112.388 98.8059L115.711 108.313C115.774 108.493 115.906 108.641 116.078 108.724C116.25 108.806 116.448 108.818 116.628 108.755L119.344 107.805C119.524 107.742 119.672 107.61 119.755 107.438C119.838 107.266 119.849 107.069 119.786 106.888L116.462 97.3815L117.82 96.9067L121.144 106.414C121.207 106.594 121.339 106.742 121.511 106.824C121.683 106.907 121.88 106.918 122.06 106.855C122.241 106.792 122.388 106.66 122.471 106.489C122.554 106.317 122.565 106.119 122.502 105.939L119.179 96.4319L120.537 95.9571L123.86 105.464C123.923 105.644 124.055 105.792 124.227 105.875C124.399 105.958 124.597 105.969 124.777 105.906C124.957 105.843 125.105 105.711 125.187 105.539C125.27 105.367 125.281 105.169 125.218 104.989L121.895 95.4823L123.253 95.0075L126.577 104.514C126.64 104.695 126.771 104.842 126.943 104.925C127.115 105.008 127.313 105.019 127.493 104.956L128.172 104.719C128.352 104.656 128.5 104.524 128.583 104.352C128.666 104.18 128.677 103.982 128.614 103.802L125.29 94.2953L126.648 93.8205L129.972 103.327C130.035 103.508 130.167 103.655 130.339 103.738C130.511 103.821 130.708 103.832 130.888 103.769L133.605 102.82C133.785 102.757 133.932 102.625 134.015 102.453C134.098 102.281 134.109 102.083 134.046 101.903L130.723 92.3961L133.439 91.4464C133.619 91.3835 133.767 91.2515 133.85 91.0797C133.932 90.9078 133.944 90.7101 133.881 90.53L132.931 87.8137C132.868 87.6336 132.736 87.4859 132.564 87.403C132.392 87.3202 132.195 87.3091 132.015 87.372L129.298 88.3216L125.975 78.8147C125.912 78.6346 125.78 78.4868 125.608 78.404C125.436 78.3212 125.238 78.31 125.058 78.373L122.342 79.3226C122.162 79.3856 122.014 79.5175 121.931 79.6894C121.848 79.8612 121.837 80.059 121.9 80.2391L125.224 89.7461L123.866 90.2209L120.542 80.7139C120.479 80.5338 120.347 80.3861 120.175 80.3032C120.003 80.2204 119.806 80.2093 119.626 80.2722L118.947 80.5096C118.766 80.5726 118.619 80.7045 118.536 80.8764C118.453 81.0483 118.442 81.246 118.505 81.4261L121.829 90.9331L120.47 91.4079L117.147 81.9009C117.084 81.7208 116.952 81.5731 116.78 81.4903C116.608 81.4074 116.41 81.3963 116.23 81.4592C116.05 81.5222 115.902 81.6541 115.82 81.826C115.737 81.9979 115.726 82.1956 115.789 82.3757L119.112 91.8827L117.754 92.3575L114.43 82.8505C114.367 82.6704 114.236 82.5227 114.064 82.4399C113.892 82.357 113.694 82.3459 113.514 82.4088C113.334 82.4718 113.186 82.6037 113.103 82.7756C113.02 82.9475 113.009 83.1452 113.072 83.3253L116.396 92.8323L115.038 93.3071L111.714 83.8001C111.651 83.62 111.519 83.4723 111.347 83.3895C111.176 83.3067 110.978 83.2955 110.798 83.3585L108.081 84.3081C107.901 84.371 107.754 84.503 107.671 84.6748C107.588 84.8467 107.577 85.0444 107.64 85.2245L110.963 94.7315L109.605 95.2063L106.282 85.6994C106.219 85.5193 106.087 85.3715 105.915 85.2887C105.743 85.2059 105.545 85.1947 105.365 85.2577L104.686 85.4951C104.506 85.5581 104.358 85.69 104.275 85.8619C104.193 86.0337 104.181 86.2315 104.244 86.4116L107.568 95.9185L105.531 96.6307L102.207 87.1238C102.144 86.9437 102.012 86.796 101.84 86.7131C101.669 86.6303 101.471 86.6191 101.291 86.6821C101.111 86.7451 100.963 86.877 100.88 87.0489C100.797 87.2207 100.786 87.4185 100.849 87.5986L104.173 97.1056L102.815 97.5804L99.4909 88.0734C99.4279 87.8933 99.296 87.7456 99.1241 87.6627C98.9523 87.5799 98.7545 87.5688 98.5744 87.6317C98.3943 87.6947 98.2466 87.8266 98.1638 87.9985C98.081 88.1704 98.0698 88.3681 98.1328 88.5482L101.456 98.0552L99.4192 98.7674L96.0956 89.2604C96.0326 89.0803 95.9007 88.9326 95.7288 88.8498C95.5569 88.7669 95.3592 88.7558 95.1791 88.8187L92.4628 89.7683C92.2827 89.8313 92.135 89.9632 92.0522 90.1351C91.9693 90.307 91.9582 90.5047 92.0211 90.6848L95.3448 100.192L92.6285 101.141C92.4484 101.204 92.3007 101.336 92.2179 101.508C92.135 101.68 92.1239 101.878 92.1868 102.058ZM98.0611 99.2422L96.7029 99.717L93.6167 90.8891L94.9748 90.4143L98.0611 99.2422ZM113.68 93.7819L112.322 94.2567L109.235 85.4288L110.593 84.954L113.68 93.7819ZM127.94 88.7964L126.582 89.2712L123.496 80.4433L124.854 79.9685L127.94 88.7964ZM128.006 93.3457L129.365 92.8709L132.451 101.699L131.093 102.174L128.006 93.3457ZM113.746 98.3311L115.104 97.8563L118.19 106.684L116.832 107.159L113.746 98.3311ZM98.1273 103.791L99.4855 103.317L102.572 112.145L101.214 112.619L98.1273 103.791ZM93.7824 102.262L131.81 88.9676L132.285 90.3257L94.2572 103.62L93.7824 102.262ZM95.9521 110.648C96.1323 110.585 96.33 110.597 96.5019 110.679C96.6737 110.762 96.8057 110.91 96.8686 111.09L99.0053 117.202L105.117 115.065C105.297 115.002 105.495 115.013 105.667 115.096C105.838 115.179 105.97 115.327 106.033 115.507C106.096 115.687 106.085 115.885 106.002 116.056C105.919 116.228 105.772 116.36 105.592 116.423L98.801 118.797C98.6209 118.86 98.4232 118.849 98.2513 118.766C98.0794 118.683 97.9475 118.536 97.8845 118.356L95.5105 111.565C95.4475 111.385 95.4587 111.187 95.5415 111.015C95.6243 110.843 95.772 110.711 95.9521 110.648ZM130.115 81.9395C129.935 82.0024 129.737 81.9913 129.566 81.9084C129.394 81.8256 129.262 81.6779 129.199 81.4978L127.062 75.3862L120.951 77.5228C120.77 77.5858 120.573 77.5746 120.401 77.4918C120.229 77.4089 120.097 77.2612 120.034 77.0811C119.971 76.901 119.982 76.7033 120.065 76.5314C120.148 76.3596 120.296 76.2276 120.476 76.1647L127.266 73.7906C127.447 73.7277 127.644 73.7388 127.816 73.8217C127.988 73.9045 128.12 74.0522 128.183 74.2323L130.557 81.023C130.62 81.2031 130.609 81.4008 130.526 81.5727C130.443 81.7446 130.295 81.8765 130.115 81.9395Z" fill="black"/>
</g>
<path fill-rule="evenodd" clip-rule="evenodd" d="M8.2408 123.908L49.8342 108.77C54.383 107.114 59.4188 109.462 61.0744 114.011L68.9245 135.579C70.5801 140.128 68.2319 145.163 63.6831 146.819L22.0897 161.958C17.5409 163.613 12.5051 161.265 10.8495 156.716L2.9994 135.149C1.34378 130.6 3.68421 125.567 8.2408 123.908Z" fill="#402B57"/>
<path d="M16.4249 140.064C15.4363 140.062 14.4604 139.853 13.5439 139.419C11.8865 138.646 10.6405 137.283 10.0168 135.569C9.39308 133.855 9.4761 131.999 10.244 130.353C11.0168 128.695 12.3804 127.449 14.094 126.826C14.6859 126.61 15.3446 126.917 15.5601 127.509C15.7755 128.101 15.4684 128.76 14.8764 128.975C13.7392 129.389 12.8259 130.224 12.3157 131.319C11.8054 132.413 11.7526 133.649 12.1666 134.787C12.5805 135.924 13.4157 136.837 14.5099 137.347C15.612 137.855 16.8407 137.91 17.9779 137.496C20.3302 136.64 21.5489 134.027 20.6927 131.675C20.4773 131.083 20.7844 130.424 21.3764 130.208C21.9683 129.993 22.627 130.3 22.8425 130.892C23.4662 132.606 23.3832 134.462 22.6153 136.109C21.8425 137.766 20.4789 139.012 18.7653 139.636C17.997 139.924 17.2089 140.061 16.4249 140.064Z" fill="white"/>
<path d="M22.1894 155.946C19.4021 155.946 16.7721 154.222 15.7657 151.457C14.4786 147.921 16.3038 143.992 19.8479 142.703C20.4398 142.487 21.0985 142.794 21.314 143.386C21.5294 143.978 21.2223 144.637 20.6303 144.852C18.278 145.708 17.0593 148.322 17.9155 150.674C18.7716 153.027 21.3852 154.245 23.7374 153.389C26.0897 152.533 27.3084 149.919 26.4523 147.567C26.2368 146.975 26.544 146.316 27.1359 146.101C27.7279 145.886 28.3866 146.193 28.602 146.785C29.8891 150.321 28.0639 154.249 24.5199 155.539C23.7488 155.82 22.9578 155.949 22.1894 155.946Z" fill="white"/>
<path d="M22.8481 151.135C22.6802 151.134 22.5166 151.096 22.3679 151.027L19.6056 149.739C19.0319 149.471 18.7853 148.794 19.0528 148.22C19.3203 147.646 19.998 147.4 20.5717 147.667L22.3034 148.475L24.5674 143.62C24.8349 143.046 25.5126 142.799 26.0863 143.067C26.66 143.334 26.9066 144.012 26.6391 144.586L23.8896 150.482C23.7608 150.758 23.5278 150.966 23.2397 151.071C23.1122 151.109 22.9791 151.131 22.8481 151.135Z" fill="white"/>
<path d="M16.8988 135.165C16.731 135.165 16.5674 135.127 16.4187 135.058L13.6564 133.77C13.0827 133.502 12.8361 132.825 13.1036 132.251C13.3711 131.677 14.0488 131.431 14.6225 131.698L16.3542 132.506L18.6182 127.65C18.8857 127.077 19.5633 126.83 20.137 127.098C20.7107 127.365 20.9574 128.043 20.6899 128.616L17.9404 134.513C17.8116 134.789 17.5786 134.997 17.2904 135.102C17.163 135.14 17.0298 135.162 16.8988 135.165Z" fill="white"/>
<path d="M29.4632 130.395C29.2954 130.395 29.124 130.36 28.9618 130.278C28.393 130 28.1542 129.319 28.4323 128.75C29.5867 126.372 31.0614 125.165 32.8156 125.162C32.834 125.164 32.8602 125.163 32.8786 125.165C33.676 125.175 34.2851 125.297 34.7702 125.394C35.5584 125.548 36.0329 125.64 37.0766 125.26C37.5128 125.101 38.0912 124.485 38.6441 123.896C40.0636 122.391 42.2094 120.119 45.7124 121.455C47.8931 122.285 49.1846 121.762 50.0119 119.696C50.2475 119.108 50.9138 118.83 51.5024 119.066C52.0909 119.301 52.3687 119.968 52.1331 120.556C50.8268 123.801 48.2628 124.876 44.8951 123.596C42.958 122.855 41.8698 123.815 40.3024 125.471C39.5251 126.292 38.7938 127.07 37.8513 127.413C36.2078 128.011 35.2482 127.822 34.3254 127.638C33.8693 127.548 33.4316 127.46 32.8389 127.455C32.0202 127.436 31.2287 128.218 30.4814 129.751C30.3009 130.152 29.8881 130.399 29.4632 130.395Z" fill="white"/>
<path d="M34.7963 145.312C34.6285 145.311 34.4571 145.276 34.2949 145.194C33.7261 144.916 33.4873 144.236 33.7654 143.667C34.9198 141.289 36.3945 140.081 38.1593 140.083C38.1777 140.085 38.2039 140.084 38.2223 140.087C39.0197 140.096 39.6288 140.219 40.1139 140.315C40.9021 140.47 41.3766 140.561 42.4204 140.182C42.8566 140.023 43.435 139.407 43.9879 138.817C45.4073 137.313 47.5531 135.041 51.0561 136.377C53.2368 137.206 54.5283 136.683 55.3556 134.618C55.5912 134.029 56.2575 133.752 56.8461 133.987C57.4347 134.223 57.7124 134.889 57.4768 135.478C56.1705 138.723 53.5987 139.8 50.2388 138.518C48.3017 137.776 47.2135 138.737 45.6461 140.392C44.8688 141.213 44.1375 141.991 43.195 142.334C41.5516 142.932 40.5919 142.744 39.6691 142.559C39.213 142.469 38.7754 142.382 38.1826 142.377C38.1748 142.38 38.172 142.372 38.1642 142.375C37.3541 142.378 36.5675 143.15 35.8329 144.67C35.6262 145.071 35.2184 145.308 34.7963 145.312Z" fill="white"/>
<path d="M165.671 87.7514C163.739 87.7514 161.949 86.5164 161.327 84.585C161.286 84.4524 161.228 84.3198 161.162 84.1955C160.581 83.1511 159.255 82.7698 158.211 83.35L158.045 83.4412C157.921 83.5158 157.788 83.5738 157.655 83.6318C155.127 84.7591 152.143 83.6235 151.016 81.0954L150.742 80.482C150.693 80.3743 150.635 80.2665 150.568 80.167C149.889 79.1226 148.479 78.8325 147.443 79.5122C147.236 79.6448 147.012 79.7692 146.789 79.8686C144.501 80.8716 141.823 79.8355 140.821 77.5477L139.942 75.5584C139.685 74.9782 139.95 74.3068 140.53 74.0498C141.111 73.7929 141.782 74.0581 142.039 74.6383L142.918 76.6277C143.415 77.755 144.741 78.2772 145.868 77.7798C145.985 77.7301 146.092 77.6721 146.192 77.6058C148.289 76.2298 151.115 76.8266 152.483 78.9237C152.616 79.1309 152.732 79.3382 152.831 79.562L153.105 80.1753C153.718 81.5513 155.343 82.173 156.727 81.5596C156.802 81.5264 156.868 81.4933 156.942 81.4518L157.108 81.3607C159.255 80.167 161.974 80.9462 163.167 83.093C163.308 83.35 163.424 83.6235 163.516 83.8971C163.897 85.0907 165.173 85.7455 166.367 85.3642C166.491 85.3228 166.607 85.273 166.723 85.215L168.506 84.2866C169.069 83.9965 169.757 84.212 170.047 84.7757C170.337 85.3393 170.122 86.0273 169.558 86.3174L167.776 87.2458C167.544 87.3618 167.312 87.4613 167.063 87.5442C166.599 87.6851 166.135 87.7514 165.671 87.7514Z" fill="#905AFF"/>
<path d="M17.8256 111.234C14.7753 111.234 12.2969 108.756 12.2969 105.705C12.2969 102.655 14.7753 100.177 17.8256 100.177C20.8759 100.177 23.3543 102.655 23.3543 105.705C23.3543 108.747 20.8676 111.234 17.8256 111.234ZM17.8256 102.464C16.0352 102.464 14.5846 103.915 14.5846 105.705C14.5846 107.496 16.0352 108.946 17.8256 108.946C19.616 108.946 21.0665 107.496 21.0665 105.705C21.0665 103.915 19.6077 102.464 17.8256 102.464Z" fill="#FF91D4"/>
<path d="M74.8203 162.318C71.0405 162.318 67.957 159.152 67.957 155.264C67.957 151.377 71.0322 148.21 74.8203 148.21C75.4502 148.21 75.9641 148.724 75.9641 149.354C75.9641 149.984 75.4502 150.498 74.8203 150.498C72.3004 150.498 70.2448 152.637 70.2448 155.264C70.2448 157.892 72.3004 160.03 74.8203 160.03C75.4502 160.03 75.9641 160.544 75.9641 161.174C75.9641 161.804 75.4502 162.318 74.8203 162.318Z" fill="#905AFF"/>
<defs>
<clipPath id="clip0_96_6215">
<rect width="46.0398" height="46.0398" fill="white" transform="matrix(-0.943976 0.330015 0.330015 0.943976 127.168 66.9668)"/>
</clipPath>
</defs>
</svg>
