<svg width="215" height="174" viewBox="0 0 215 174" fill="none" xmlns="http://www.w3.org/2000/svg">
<path d="M214.266 149.796C212.855 155.211 207.923 159.209 202.055 159.209C195.087 159.209 189.438 153.572 189.438 146.618C189.438 139.665 195.087 134.029 202.055 134.029C204.937 134.029 207.594 134.994 209.72 136.617V143.998C209.72 146.801 211.655 149.154 214.267 149.797L214.266 149.796Z" fill="white"/>
<path d="M206.1 115.325C211.016 115.325 215.001 111.349 215.001 106.444C215.001 101.538 211.016 97.562 206.1 97.562C201.184 97.562 197.199 101.538 197.199 106.444C197.199 111.349 201.184 115.325 206.1 115.325Z" fill="#EFF0F1"/>
<path d="M207.27 21.9414C207.27 25.1792 198.565 49.3882 196.034 56.3605C195.397 58.1152 194.304 59.6783 192.837 60.8366C191.99 61.506 191.032 62.0413 190.133 62.0413C189.234 62.0413 188.276 61.506 187.429 60.8366C185.963 59.6783 184.869 58.1152 184.232 56.3597C181.7 49.3873 172.996 25.1784 172.996 21.9405C172.996 12.496 180.669 4.83966 190.133 4.83966C199.598 4.83966 207.27 12.496 207.27 21.9405V21.9414Z" fill="white"/>
<path d="M190.133 62.343C189.281 62.343 188.309 61.9159 187.243 61.0729C185.757 59.8991 184.618 58.3051 183.95 56.4628C181.309 49.1914 172.695 25.2128 172.695 21.9414C172.695 12.3465 180.518 4.53979 190.134 4.53979C199.75 4.53979 207.572 12.3465 207.572 21.9414C207.572 25.2128 198.958 49.1914 196.318 56.4628C195.649 58.3043 194.51 59.8983 193.025 61.0721C191.959 61.915 190.986 62.3421 190.134 62.3421L190.133 62.343ZM190.133 5.1413C180.85 5.1413 173.297 12.6782 173.297 21.9414C173.297 24.4635 179.092 41.322 184.515 56.2583C185.146 57.9949 186.218 59.497 187.616 60.602C188.573 61.3582 189.42 61.7415 190.133 61.7415C190.846 61.7415 191.693 61.3582 192.65 60.6012C194.047 59.497 195.119 57.9949 195.75 56.2583C201.173 41.322 206.968 24.4626 206.968 21.9414C206.968 12.6782 199.415 5.1413 190.132 5.1413H190.133Z" fill="black"/>
<path d="M190.134 33.8351C196.717 33.8351 202.053 28.5102 202.053 21.9416C202.053 15.373 196.717 10.048 190.134 10.048C183.551 10.048 178.215 15.373 178.215 21.9416C178.215 28.5102 183.551 33.8351 190.134 33.8351Z" fill="#402B57"/>
<path d="M190.134 34.1539C183.385 34.1539 177.895 28.675 177.895 21.9416C177.895 15.2081 183.385 9.72925 190.134 9.72925C196.883 9.72925 202.372 15.2081 202.372 21.9416C202.372 28.675 196.882 34.1539 190.134 34.1539ZM190.134 10.3668C183.738 10.3668 178.534 15.5587 178.534 21.9416C178.534 28.3244 183.737 33.5163 190.134 33.5163C196.53 33.5163 201.733 28.3244 201.733 21.9416C201.733 15.5587 196.53 10.3668 190.134 10.3668Z" fill="#1A1A1A"/>
<path d="M213.1 165.123L172.585 136.13H170.948V144.706H47.3594L87.8739 173.699H211.463L211.874 173.294C214.056 171.144 214.555 167.816 213.1 165.123Z" fill="#D0D5D8"/>
<path d="M211.463 174H87.8746C87.8118 174 87.7506 173.98 87.6989 173.943L47.1844 144.95C47.0776 144.873 47.0329 144.737 47.0733 144.613C47.1138 144.488 47.2292 144.404 47.3601 144.404H170.647V136.129C170.647 135.963 170.783 135.828 170.949 135.828H172.586C172.649 135.828 172.711 135.848 172.762 135.885L213.276 164.878C213.313 164.905 213.344 164.939 213.366 164.98C214.111 166.359 214.382 167.907 214.149 169.456C213.917 171.005 213.204 172.406 212.087 173.507L211.675 173.912C211.618 173.968 211.543 173.999 211.463 173.999V174ZM87.9711 173.398H211.339L211.663 173.079C213.72 171.053 214.21 167.875 212.867 165.327L172.489 136.43H171.25V144.706C171.25 144.871 171.115 145.006 170.949 145.006H48.297L87.9711 173.398Z" fill="#1A1A1A"/>
<path d="M1.5625 65.2792H126.55L170.951 144.45L47.6012 144.706L1.5625 65.2792Z" fill="#D0D5D8"/>
<path d="M47.4265 145.006L47.3396 144.856L1.03906 64.9784H126.726L171.464 144.75H170.951L47.4265 145.007V145.006ZM2.08362 65.5799L47.7736 144.405L170.437 144.151L126.372 65.5808H2.08362V65.5799Z" fill="#1A1A1A"/>
<path d="M213.1 165.123H89.5109L48.9963 136.13H172.585L213.1 165.123Z" fill="white"/>
<path d="M213.1 165.443H89.5108C89.4436 165.443 89.379 165.422 89.3239 165.383L48.8094 136.389C48.6965 136.308 48.6483 136.164 48.6914 136.032C48.7344 135.899 48.8567 135.81 48.9962 135.81H172.585C172.652 135.81 172.717 135.831 172.772 135.87L213.286 164.864C213.399 164.945 213.447 165.089 213.404 165.221C213.362 165.354 213.239 165.443 213.1 165.443ZM89.6132 164.804H212.104L172.482 136.449H49.9908L89.6132 164.804Z" fill="#1A1A1A"/>
<path d="M1.56274 56.7034H126.55L172.589 136.13H47.6015L1.56274 56.7034Z" fill="white"/>
<path d="M172.589 136.449H47.6014C47.4869 136.449 47.3819 136.388 47.3242 136.289L1.28546 56.8623C1.22776 56.7635 1.22776 56.6415 1.28546 56.5426C1.34229 56.4438 1.44821 56.3828 1.56274 56.3828H126.55C126.665 56.3828 126.77 56.4438 126.827 56.5418L172.866 135.968C172.923 136.067 172.924 136.189 172.866 136.288C172.809 136.387 172.703 136.448 172.589 136.448V136.449ZM47.7857 135.81H172.034L126.365 57.0221H2.11644L47.7857 135.81Z" fill="#1A1A1A"/>
<path d="M89.5109 165.123L89.9992 166.611C90.8439 169.184 89.9966 172.011 87.8739 173.699L47.3594 144.706V136.13H48.9964L89.5109 165.123Z" fill="#D0D5D8"/>
<path d="M87.8745 174C87.8134 174 87.7514 173.981 87.6989 173.943L47.1843 144.95C47.1051 144.893 47.0586 144.802 47.0586 144.706V136.13C47.0586 135.964 47.1938 135.829 47.36 135.829H48.997C49.0599 135.829 49.1219 135.849 49.1727 135.886L89.6872 164.879C89.7389 164.916 89.7785 164.97 89.7983 165.03L90.2866 166.517C91.1658 169.196 90.2719 172.177 88.0631 173.934C88.008 173.978 87.9417 173.999 87.8754 173.999L87.8745 174ZM47.6614 144.551L87.8608 173.319C89.7458 171.702 90.4898 169.074 89.7122 166.705L89.2549 165.311L48.8997 136.431H47.6614V144.551Z" fill="#1A1A1A"/>
<path d="M161.377 130.923H52.7765L36.7043 103.195L12.7734 61.9097H121.374L135.803 86.8044L147.697 107.323L161.377 130.923Z" fill="white"/>
<path d="M161.376 131.224H52.7764C52.6688 131.224 52.5698 131.167 52.5155 131.074L36.4433 103.346L12.5133 62.061C12.4591 61.9682 12.4591 61.853 12.5133 61.7602C12.5667 61.6674 12.6666 61.6099 12.7743 61.6099H121.374C121.482 61.6099 121.581 61.6674 121.635 61.7602L161.638 130.773C161.692 130.866 161.692 130.981 161.638 131.074C161.584 131.167 161.485 131.224 161.377 131.224H161.376ZM52.9495 130.623H160.854L121.199 62.2114H13.2953L36.9643 103.045L52.9495 130.623Z" fill="#1A1A1A"/>
<path d="M47.6003 136.13V144.706L1.56162 65.2791L0.891653 63.7015C-0.0840096 61.4054 0.168305 58.7734 1.56162 56.7034L47.6003 136.13Z" fill="#D0D5D8"/>
<path d="M47.5997 145.006C47.4938 145.006 47.3939 144.951 47.3388 144.856L1.30006 65.4295C1.29403 65.4192 1.28801 65.4081 1.2837 65.396L0.613737 63.8184C-0.404983 61.4201 -0.144062 58.6978 1.31125 56.535C1.36895 56.449 1.46798 56.3983 1.57131 56.4018C1.67551 56.4052 1.77024 56.4619 1.82191 56.5522L47.8606 135.979C47.8873 136.024 47.9011 136.077 47.9011 136.129V144.705C47.9011 144.841 47.8098 144.96 47.678 144.995C47.6522 145.002 47.6255 145.006 47.5997 145.006V145.006ZM1.83138 65.1443L47.2991 143.585V136.211L1.55151 57.2868C0.442373 59.2057 0.293391 61.524 1.1683 63.5838L1.83138 65.1443Z" fill="#1A1A1A"/>
<path d="M46.7958 144.705C48.5665 144.705 50.0018 142.511 50.0018 139.805C50.0018 137.098 48.5665 134.904 46.7958 134.904C45.0252 134.904 43.5898 137.098 43.5898 139.805C43.5898 142.511 45.0252 144.705 46.7958 144.705Z" fill="black"/>
<path d="M44.3926 143.48C45.7204 143.48 46.7968 141.835 46.7968 139.805C46.7968 137.775 45.7204 136.13 44.3926 136.13C43.0647 136.13 41.9883 137.775 41.9883 139.805C41.9883 141.835 43.0647 143.48 44.3926 143.48Z" fill="#D0D5D8"/>
<path d="M44.3932 143.781C42.9008 143.781 41.6875 141.997 41.6875 139.805C41.6875 137.613 42.9008 135.829 44.3932 135.829C45.8855 135.829 47.0989 137.613 47.0989 139.805C47.0989 141.997 45.8855 143.781 44.3932 143.781ZM44.3932 136.43C43.2332 136.43 42.2903 137.944 42.2903 139.805C42.2903 141.665 43.2332 143.179 44.3932 143.179C45.5531 143.179 46.4961 141.665 46.4961 139.805C46.4961 137.944 45.5531 136.43 44.3932 136.43Z" fill="black"/>
<path d="M167.907 83.0685C167.907 83.0685 189.071 73.3284 192.995 72.8145C195.365 72.1288 196.742 71.4852 198.465 71.4164C200.474 71.3365 200.25 73.8147 200.415 75.8349C200.721 79.5866 195.836 85.2124 183.79 88.0455C183.79 88.0455 175.298 89.985 172.995 91.6692L167.906 83.0685H167.907Z" fill="white"/>
<path d="M172.996 91.9698C172.976 91.9698 172.955 91.9681 172.935 91.9638C172.852 91.9466 172.779 91.8951 172.736 91.822L167.647 83.2213C167.604 83.1483 167.594 83.0598 167.619 82.979C167.644 82.8982 167.703 82.8312 167.781 82.7951C168.645 82.3972 188.952 73.0661 192.933 72.5196C193.604 72.3246 194.208 72.1295 194.741 71.9576C196.108 71.516 197.187 71.1671 198.453 71.1164C199.355 71.0803 199.976 71.5014 200.301 72.3667C200.566 73.0704 200.614 73.9993 200.659 74.8973C200.675 75.2006 200.691 75.5143 200.715 75.8099C200.889 77.9315 199.508 80.3753 196.927 82.5158C193.9 85.0258 189.381 87.0392 183.859 88.3376C183.773 88.3573 175.4 90.283 173.174 91.9114C173.122 91.9492 173.059 91.9698 172.996 91.9698ZM168.335 83.2024L173.092 91.2411C175.728 89.5904 183.385 87.8288 183.722 87.7524C189.152 86.4755 193.586 84.5042 196.542 82.0535C198.969 80.041 200.271 77.7828 200.114 75.8597C200.089 75.5547 200.072 75.2367 200.057 74.9291C199.952 72.896 199.791 71.6663 198.477 71.7179C197.292 71.7652 196.248 72.1029 194.926 72.5308C194.384 72.7061 193.768 72.9055 193.079 73.1048C193.064 73.1091 193.05 73.1125 193.034 73.1143C189.454 73.5826 170.942 82.0114 168.336 83.2041L168.335 83.2024Z" fill="#1A1A1A"/>
<path d="M185.059 78.7561C185.059 78.7561 186.296 76.9516 186.757 73.0521C186.902 71.8233 187.609 69.2892 187.4 67.0387C187.264 65.5581 185.782 65.9938 185.323 66.53C184.862 67.0662 178.188 78.7724 174.207 80.259L185.059 78.757V78.7561Z" fill="white"/>
<path d="M174.208 80.5591C174.086 80.5591 173.971 80.4843 173.926 80.364C173.867 80.2085 173.946 80.0349 174.102 79.9773C177.314 78.7778 182.606 70.287 184.344 67.4969C184.812 66.7467 185.006 66.4383 185.094 66.3343C185.454 65.9158 186.231 65.5876 186.86 65.7869C187.14 65.8763 187.622 66.1538 187.701 67.0114C187.857 68.6982 187.514 70.5285 187.264 71.8647C187.173 72.3494 187.095 72.7678 187.057 73.0884C186.594 77.0171 185.361 78.8508 185.308 78.9273C185.214 79.0639 185.026 79.0991 184.889 79.0055C184.753 78.9118 184.717 78.7245 184.811 78.5879C184.829 78.5604 186.016 76.7722 186.459 73.0179C186.5 72.6776 186.58 72.2497 186.672 71.7547C186.916 70.4529 187.25 68.6707 187.102 67.0673C187.066 66.6763 186.923 66.4382 186.677 66.3609C186.318 66.2466 185.778 66.464 185.553 66.727C185.489 66.8009 185.196 67.2718 184.857 67.8157C182.905 70.9487 177.718 79.2701 174.314 80.5419C174.279 80.5548 174.243 80.5608 174.208 80.5608V80.5591Z" fill="#1A1A1A"/>
<path d="M100.023 50.8393C134.063 69.7714 98.7365 99.1335 170.285 81.3074C171.317 86.0679 174.127 89.0703 176.343 91.5992C169.56 96.7877 147.677 109.867 131.777 112.132C119.777 113.841 83.8759 106.748 82.8167 106.728L72.05 130.923H52.7753L36.7031 103.195C38.5838 71.7426 46.1075 51.0714 71.9398 48.985C71.9398 48.985 85.1091 48.5132 91.0707 48.9936C97.0323 49.4739 100.025 50.8393 100.025 50.8393H100.023Z" fill="#402B57"/>
<path d="M72.0503 131.224H52.7756C52.6679 131.224 52.5689 131.167 52.5146 131.074L36.4425 103.346C36.4132 103.295 36.3994 103.236 36.4029 103.178C37.4534 85.6075 40.2108 73.4536 45.0788 64.9286C50.7493 54.9985 59.5277 49.6855 71.9159 48.6853C71.9202 48.6853 71.9246 48.6853 71.9297 48.6853C72.0615 48.6801 85.1851 48.2187 91.0959 48.6947C97.0421 49.1742 100.027 50.5096 100.151 50.5663C100.158 50.5697 100.165 50.5731 100.172 50.5774C112.898 57.6546 116.033 66.2579 118.551 73.1709C120.701 79.0717 122.399 83.7325 129.093 85.6273C132.64 86.6318 137.433 86.8002 143.744 86.142C150.567 85.4305 159.224 83.754 170.213 81.0163C170.293 80.9966 170.376 81.0094 170.446 81.0524C170.515 81.0954 170.564 81.165 170.581 81.244C171.545 85.6866 174.033 88.5163 176.229 91.0125C176.345 91.144 176.458 91.2729 176.571 91.4018C176.626 91.4645 176.652 91.547 176.644 91.6295C176.636 91.712 176.594 91.7876 176.528 91.8383C173.02 94.5219 165.812 99.0856 157.618 103.231C150.681 106.739 140.576 111.184 131.822 112.431C130.508 112.618 128.914 112.701 127.12 112.701C115.286 112.701 94.6042 109.072 86.1212 107.585C84.6702 107.331 83.4715 107.12 83.0056 107.052L72.3284 131.046C72.2802 131.155 72.1726 131.225 72.0529 131.225L72.0503 131.224ZM52.9487 130.623H71.8539L82.5415 106.606C82.5905 106.495 82.6999 106.425 82.8231 106.427C83.0211 106.431 83.9511 106.593 86.2237 106.992C95.9674 108.701 121.851 113.243 131.735 111.835C146.717 109.701 168.012 97.5036 175.904 91.5556C175.861 91.5075 175.818 91.4585 175.775 91.4095C173.69 89.0378 171.105 86.0999 170.059 81.6737C155.234 85.3558 144.552 87.1379 136.95 87.1379C133.759 87.1379 131.112 86.8243 128.926 86.2056C125.718 85.2973 123.4 83.724 121.632 81.2535C120.045 79.0382 119.044 76.2876 117.982 73.3754C115.499 66.5586 112.408 58.0757 99.8881 51.1085C99.6944 51.0234 96.7054 49.7499 91.0451 49.2936C85.2222 48.8245 72.3164 49.273 71.9556 49.2851C59.7843 50.2698 51.1635 55.484 45.6006 65.2259C40.7886 73.653 38.0571 85.696 37.0082 103.123L52.9487 130.622V130.623Z" fill="#1A1A1A"/>
<path d="M113.501 79.9287L118.4 112.749L121.113 130.924H60.3145L56.5703 85.4548L113.501 79.9287Z" fill="#402B57"/>
<path d="M121.114 131.224H60.3153C60.1586 131.224 60.0277 131.104 60.0148 130.948L56.2706 85.4805C56.2568 85.3147 56.3808 85.1694 56.5461 85.1566C56.7123 85.1428 56.8579 85.2657 56.8708 85.4315L60.5917 130.624H120.763L113.203 79.9741C113.179 79.81 113.292 79.6571 113.458 79.6321C113.622 79.6081 113.775 79.7206 113.8 79.8856L121.412 130.88C121.425 130.967 121.399 131.054 121.342 131.12C121.284 131.187 121.202 131.224 121.114 131.224Z" fill="#1A1A1A"/>
<path d="M95.2432 77.6769C96.3979 77.6769 97.334 76.7428 97.334 75.5905C97.334 74.4383 96.3979 73.5042 95.2432 73.5042C94.0884 73.5042 93.1523 74.4383 93.1523 75.5905C93.1523 76.7428 94.0884 77.6769 95.2432 77.6769Z" fill="white"/>
<path d="M95.2432 77.9957C93.9136 77.9957 92.832 76.9164 92.832 75.5896C92.832 74.2629 93.9136 73.1836 95.2432 73.1836C96.5728 73.1836 97.6544 74.2629 97.6544 75.5896C97.6544 76.9164 96.5728 77.9957 95.2432 77.9957ZM95.2432 73.8221C94.2667 73.8221 93.4718 74.6152 93.4718 75.5896C93.4718 76.5641 94.2667 77.3572 95.2432 77.3572C96.2197 77.3572 97.0146 76.5641 97.0146 75.5896C97.0146 74.6152 96.2197 73.8221 95.2432 73.8221Z" fill="#1A1A1A"/>
<path d="M98.3721 94.7429C99.5268 94.7429 100.463 93.8088 100.463 92.6566C100.463 91.5043 99.5268 90.5702 98.3721 90.5702C97.2173 90.5702 96.2812 91.5043 96.2812 92.6566C96.2812 93.8088 97.2173 94.7429 98.3721 94.7429Z" fill="white"/>
<path d="M98.3721 95.0626C97.0425 95.0626 95.9609 93.9833 95.9609 92.6565C95.9609 91.3298 97.0425 90.2505 98.3721 90.2505C99.7017 90.2505 100.783 91.3298 100.783 92.6565C100.783 93.9833 99.7017 95.0626 98.3721 95.0626ZM98.3721 90.8889C97.3956 90.8889 96.6008 91.6821 96.6008 92.6565C96.6008 93.631 97.3956 94.4241 98.3721 94.4241C99.3486 94.4241 100.143 93.631 100.143 92.6565C100.143 91.6821 99.3486 90.8889 98.3721 90.8889Z" fill="#1A1A1A"/>
<path d="M100.946 117.362C102.101 117.362 103.037 116.428 103.037 115.276C103.037 114.123 102.101 113.189 100.946 113.189C99.7916 113.189 98.8555 114.123 98.8555 115.276C98.8555 116.428 99.7916 117.362 100.946 117.362Z" fill="white"/>
<path d="M100.946 117.682C99.6167 117.682 98.5352 116.602 98.5352 115.276C98.5352 113.949 99.6167 112.87 100.946 112.87C102.276 112.87 103.357 113.949 103.357 115.276C103.357 116.602 102.276 117.682 100.946 117.682ZM100.946 113.508C99.9698 113.508 99.175 114.301 99.175 115.276C99.175 116.25 99.9698 117.043 100.946 117.043C101.923 117.043 102.718 116.25 102.718 115.276C102.718 114.301 101.923 113.508 100.946 113.508Z" fill="#1A1A1A"/>
<path d="M97.0817 60.5822C93.3599 62.0276 87.3862 62.9333 82.1557 60.1105C78.5545 58.1667 76.1536 54.2733 71.9375 48.9843C73.5435 48.7798 75.2675 48.6053 77.1198 48.4636C82.005 48.0889 97.6104 49.8462 98.9228 50.3721C99.2965 50.5216 100.463 59.2692 97.0817 60.5822Z" fill="#42D3F0"/>
<path d="M89.7516 62.2535C87.3422 62.2535 84.6382 61.792 82.0126 60.3751C79.1347 58.8215 77.0697 56.1284 74.2125 52.4008C73.4263 51.3748 72.6133 50.3144 71.7023 49.1715C71.6342 49.0865 71.6179 48.9713 71.6592 48.8708C71.7005 48.7703 71.7927 48.6998 71.9003 48.686C73.515 48.4798 75.2639 48.3045 77.0973 48.1636C82.0384 47.7855 97.6189 49.5256 99.0355 50.0927C99.1664 50.1451 99.3463 50.2173 99.5401 51.5999C99.6116 52.1112 99.7313 53.163 99.7244 54.4683C99.714 56.4928 99.3704 60.0159 97.1926 60.8623C96.0465 61.3074 93.2013 62.2526 89.7525 62.2526L89.7516 62.2535ZM72.5066 49.2171C73.2885 50.2061 73.9998 51.1342 74.6913 52.0356C77.5029 55.7039 79.5351 58.354 82.2994 59.8457C88.453 63.1669 95.0863 61.0341 96.973 60.302C97.6706 60.0313 98.2105 59.3637 98.5773 58.317C99.5229 55.6223 98.9916 51.2914 98.7289 50.6229C97.0781 50.1254 82.0548 48.387 77.1429 48.7634C75.518 48.888 73.961 49.0401 72.5066 49.2162V49.2171Z" fill="#1A1A1A"/>
<path d="M102.642 20.9713C102.642 20.9713 105.131 20.3586 105.438 17.6707C105.745 14.982 104.279 8.72113 99.9819 7.42789C99.9819 7.42789 99.0949 7.08761 99.6409 5.24957C100.187 3.41154 97.7868 -0.81191 96.1714 3.21905C96.1033 3.38919 95.2422 5.89576 95.2422 5.89576L102.643 20.9713H102.642Z" fill="black"/>
<path d="M94.2979 41.397L95.2752 56.5335C86.1825 58.552 80.059 55.9749 77.1209 48.4647C79.0317 44.1596 78.3884 31.0115 78.3884 31.0115C78.3884 31.0115 75.9041 23.8811 76.0573 18.2149C76.2115 12.5487 93.8595 3.514 95.2399 3.66696C96.6212 3.81991 106.289 18.9805 105.675 30.7718C105.277 38.4298 98.793 40.7276 94.297 41.3961C91.8703 41.757 90.0223 41.6444 90.0223 41.6444L94.297 41.3961L94.2979 41.397Z" fill="white"/>
<path d="M89.7666 57.4916C87.513 57.4916 85.5066 57.1101 83.7688 56.3479C80.655 54.9824 78.3239 52.3667 76.8402 48.5738C76.8109 48.499 76.8126 48.4157 76.8453 48.3426C78.652 44.2713 78.1267 31.8905 78.0897 31.0682C77.8856 30.4675 75.6096 23.637 75.7568 18.2071C75.8008 16.5994 77.1321 14.6462 79.7137 12.4026C84.9847 7.82164 94.1291 3.24245 95.2744 3.36877C95.7454 3.42118 96.5928 4.35352 97.7915 6.14172C99.0255 7.98147 100.335 10.3196 101.48 12.7265C103.31 16.5753 106.33 24.04 105.977 30.7881C105.796 34.282 104.358 37.0274 101.701 38.9488C99.8539 40.285 97.472 41.1933 94.6165 41.6513L95.5758 56.5137C95.5853 56.6615 95.4854 56.7947 95.3407 56.8265C93.3446 57.2699 91.4837 57.4907 89.7666 57.4907V57.4916ZM77.4464 48.469C80.3027 55.6432 86.0336 58.2057 94.9575 56.2946L94.018 41.7398C91.7515 42.0457 90.0783 41.9486 90.0051 41.9443C89.8389 41.934 89.7123 41.7914 89.7227 41.6255C89.733 41.4597 89.8751 41.3325 90.0422 41.3437C90.0602 41.3445 91.8893 41.4502 94.2505 41.0988C94.2522 41.0988 94.2548 41.0988 94.2565 41.0979C99.1219 40.3735 105 37.9916 105.375 30.7563C105.717 24.1904 102.779 16.8855 100.997 13.1158C99.8771 10.7458 98.5898 8.43174 97.3721 6.598C96.0115 4.54858 95.3424 4.00207 95.2003 3.96426C94.3805 3.89896 85.1372 8.34839 79.8016 13.1269C77.5549 15.1394 76.3967 16.8537 76.3596 18.2217C76.2098 23.7685 78.6494 30.8405 78.6743 30.9109C78.6838 30.9384 78.689 30.9668 78.6907 30.9952C78.7166 31.5305 79.3047 44.0393 77.4472 48.4672L77.4464 48.469Z" fill="#1A1A1A"/>
<path d="M100.865 4.17458C100.865 4.17458 108.115 14.4621 92.3355 14.2997C81.586 14.1888 84.4346 20.2237 85.1338 20.9214C85.8331 21.6192 87.843 27.5492 84.2598 25.9792C80.6766 24.4093 78.944 19.3867 78.0545 23.9736C77.1649 28.5597 79.2687 29.5453 79.3462 29.7782C79.4237 30.011 81.3268 31.8328 81.0168 33.8091C80.7059 35.7855 79.1912 37.8788 77.0934 37.181C74.9957 36.4833 72.9376 33.2661 72.3934 30.6306C71.85 27.9951 71.6166 26.1734 70.8399 25.5917C70.0632 25.0099 66.6057 22.1029 66.567 18.7311C66.5282 15.3592 68.5088 13.5375 70.1407 12.9944C71.7716 12.4522 74.0252 9.42832 74.4523 7.83948C74.8795 6.25064 79.6183 0.4753 84.6292 0.668642C89.6401 0.862843 89.7176 2.02547 91.6982 1.63793C93.6788 1.25039 98.7673 -0.609985 100.399 0.20377C102.03 1.01752 100.865 4.17458 100.865 4.17458Z" fill="black"/>
<path d="M204.079 55.1749C209.68 55.1749 214.221 50.6441 214.221 45.055C214.221 39.4659 209.68 34.9351 204.079 34.9351C198.478 34.9351 193.938 39.4659 193.938 45.055C193.938 50.6441 198.478 55.1749 204.079 55.1749Z" fill="#00B3E3"/>
<path d="M204.08 55.4757C198.321 55.4757 193.637 50.8011 193.637 45.055C193.637 39.3089 198.321 34.6343 204.08 34.6343C209.838 34.6343 214.523 39.3089 214.523 45.055C214.523 50.8011 209.838 55.4757 204.08 55.4757ZM204.08 35.2358C198.654 35.2358 194.24 39.6405 194.24 45.055C194.24 50.4694 198.654 54.8742 204.08 54.8742C209.506 54.8742 213.92 50.4694 213.92 45.055C213.92 39.6405 209.506 35.2358 204.08 35.2358Z" fill="#402B57"/>
<path d="M210.448 43.0193L203.778 48.31L201.786 49.8911L200.203 47.9035L197.711 44.7748L199.703 43.1946L202.195 46.3224L208.864 41.0317L210.448 43.0193Z" fill="white"/>
<path d="M201.739 50.3139L197.289 44.7268L199.753 42.7727L202.245 45.9005L208.914 40.6099L210.873 43.0683L201.739 50.3139ZM198.136 44.823L201.836 49.4684L210.026 42.9712L208.818 41.4545L202.148 46.7452L199.656 43.6174L198.136 44.823H198.136Z" fill="black"/>
<path d="M69.0731 140.962L87.0656 153.013C87.1397 153.062 87.2275 153.088 87.3162 153.088L185.766 152.501C186.192 152.499 186.371 151.957 186.03 151.702L171.066 140.49C170.989 140.433 170.895 140.402 170.8 140.401L69.322 140.149C68.882 140.148 68.7071 140.717 69.0731 140.962Z" fill="#D0D5D8"/>
<path d="M87.3148 153.389C87.1658 153.389 87.022 153.345 86.8989 153.263L68.9064 141.212C68.6274 141.025 68.5103 140.696 68.6085 140.376C68.7066 140.055 68.9865 139.849 69.3223 139.849H69.3241L170.802 140.101C170.962 140.101 171.12 140.154 171.248 140.25L186.212 151.463C186.473 151.658 186.575 151.983 186.473 152.292C186.371 152.6 186.094 152.801 185.769 152.803L87.3191 153.39H87.3148V153.389ZM69.3223 140.45C69.2302 140.45 69.1966 140.513 69.1854 140.551C69.1734 140.589 69.1656 140.66 69.2431 140.713L87.2356 152.763C87.2597 152.78 87.289 152.788 87.3165 152.788L185.766 152.201C185.859 152.201 185.892 152.132 185.902 152.102C185.912 152.073 185.927 151.998 185.852 151.942L170.888 140.73C170.863 140.711 170.833 140.702 170.802 140.702L69.3241 140.45H69.3223Z" fill="#1A1A1A"/>
<path d="M130.738 155.571L139.176 161.391L165.113 161.241L156.94 155.571H130.738Z" fill="#D0D5D8"/>
<path d="M139.176 161.692C139.115 161.692 139.055 161.673 139.005 161.639L130.568 155.819C130.459 155.744 130.412 155.607 130.451 155.482C130.491 155.356 130.607 155.271 130.739 155.271H156.94C157.001 155.271 157.061 155.289 157.112 155.325L165.285 160.994C165.393 161.069 165.44 161.205 165.4 161.33C165.361 161.456 165.245 161.541 165.115 161.542L139.177 161.692H139.175H139.176ZM131.705 155.872L139.269 161.09L164.16 160.945L156.846 155.872H131.705Z" fill="#1A1A1A"/>
<path d="M162.372 82.4155C162.372 82.4155 168.58 96.6704 169.478 97.1877C176.162 94.1827 177.427 91.6684 177.427 91.6684C177.427 91.6684 172.11 80.0361 170.664 80.0361C169.218 80.0361 162.371 82.4155 162.371 82.4155H162.372Z" fill="white"/>
<path d="M169.477 97.5073C169.422 97.5073 169.367 97.4927 169.317 97.4643C169.122 97.3526 168.667 97.0897 165.296 89.741C163.65 86.1517 162.093 82.5787 162.077 82.5435C162.042 82.4619 162.042 82.3699 162.077 82.2883C162.113 82.2067 162.181 82.1439 162.265 82.1147C162.547 82.0168 169.18 79.7173 170.663 79.7173C170.995 79.7173 171.484 79.951 172.599 81.6816C173.225 82.6544 173.989 84.0086 174.87 85.7057C176.367 88.5878 177.703 91.5077 177.717 91.536C177.758 91.6237 177.755 91.7251 177.712 91.8119C177.659 91.9184 176.32 94.462 169.608 97.479C169.566 97.4979 169.521 97.5073 169.476 97.5073H169.477ZM162.802 82.6045C165.058 87.7689 168.658 95.683 169.543 96.8078C175.018 94.3142 176.71 92.1736 177.064 91.6478C176.772 91.0153 175.619 88.538 174.34 86.0718C171.57 80.7261 170.788 80.3721 170.659 80.3557C169.582 80.3557 164.9 81.8853 162.801 82.6045H162.802Z" fill="#1A1A1A"/>
</svg>
